<svg width="24" height="24" viewBox="0 0 24 24" fill="none" xmlns="http://www.w3.org/2000/svg">
<path d="M10 4H4C2.89 4 2 4.89 2 6V18C2 19.097 2.903 20 4 20H20C21.097 20 22 19.097 22 18V8C22 7.46957 21.7893 6.96086 21.4142 6.58579C21.0391 6.21071 20.5304 6 20 6H12L10 4Z" fill="#FBC02D"/>
<path fill-rule="evenodd" clip-rule="evenodd" d="M21.598 12.059H15.513V10.842H21.598M19.164 16.927H15.514V15.71H19.164M21.598 14.493H15.513V13.276H21.598M22.206 9.01601H14.905C14.7451 9.01601 14.5868 9.04752 14.4391 9.10874C14.2914 9.16996 14.1571 9.2597 14.0441 9.37281C13.9311 9.48593 13.8415 9.62021 13.7804 9.76797C13.7193 9.91574 13.6879 10.0741 13.688 10.234V17.535C13.688 17.8578 13.8162 18.1673 14.0445 18.3956C14.2727 18.6238 14.5823 18.752 14.905 18.752H22.206C22.5288 18.752 22.8383 18.6238 23.0666 18.3956C23.2948 18.1673 23.423 17.8578 23.423 17.535V10.234C23.423 9.91124 23.2948 9.60169 23.0666 9.37346C22.8383 9.14523 22.5288 9.01701 22.206 9.01701M12.471 11.451H11.254V19.969C11.254 20.2918 11.3822 20.6013 11.6105 20.8296C11.8387 21.0578 12.1483 21.186 12.471 21.186H20.99V19.969H12.47L12.471 11.451Z" fill="#FFF9C4"/>
</svg>
