<svg width="24" height="24" viewBox="0 0 24 24" fill="none" xmlns="http://www.w3.org/2000/svg">
<path d="M19 20H4C3.46957 20 2.96086 19.7893 2.58579 19.4142C2.21071 19.0391 2 18.5304 2 18V6C2 4.89 2.89 4 4 4H10L12 6H19C20.097 6 21 6.903 21 8H4V18L6.14 10H23.21L20.93 18.5C20.7 19.37 19.92 20 19 20Z" fill="#FBC02D"/>
<path d="M21.5979 12.059H15.5129V10.842H21.5979M19.1639 16.927H15.5139V15.71H19.1639M21.5979 14.493H15.5129V13.276H21.5979M22.2059 9.01601H14.9049C14.745 9.01601 14.5867 9.04752 14.4389 9.10874C14.2912 9.16996 14.157 9.2597 14.044 9.37281C13.931 9.48593 13.8414 9.62021 13.7803 9.76797C13.7192 9.91574 13.6878 10.0741 13.6879 10.234V17.535C13.6879 17.8578 13.8161 18.1673 14.0444 18.3956C14.2726 18.6238 14.5821 18.752 14.9049 18.752H22.2059C22.5287 18.752 22.8382 18.6238 23.0665 18.3956C23.2947 18.1673 23.4229 17.8578 23.4229 17.535V10.234C23.4229 9.91124 23.2947 9.60169 23.0665 9.37346C22.8382 9.14523 22.5287 9.01701 22.2059 9.01701M12.4709 11.45H11.2539V19.969C11.2539 20.2918 11.3821 20.6013 11.6104 20.8296C11.8386 21.0578 12.1481 21.186 12.4709 21.186H20.9899V19.969H12.4699L12.4709 11.45Z" fill="#FFF9C4"/>
</svg>
