<svg width="24" height="25" viewBox="0 0 24 25" fill="none" xmlns="http://www.w3.org/2000/svg">
<path d="M10 4.21313H4C2.89 4.21313 2 5.10313 2 6.21313V18.2131C2 19.3101 2.903 20.2131 4 20.2131H20C21.097 20.2131 22 19.3101 22 18.2131V8.21313C22 7.6827 21.7893 7.17399 21.4142 6.79892C21.0391 6.42385 20.5304 6.21313 20 6.21313H12L10 4.21313Z" fill="#8BC34A"/>
<path d="M17.15 8.74313L11.66 11.9131C11.45 12.0331 11.33 12.2531 11.33 12.4831V18.8231C11.33 19.0631 11.46 19.2831 11.66 19.3931L17.15 22.5731C17.36 22.6931 17.61 22.6931 17.81 22.5731L23.3 19.4031C23.5 19.2831 23.63 19.0631 23.63 18.8331V12.4931C23.63 12.2531 23.5 12.0331 23.3 11.9231L17.81 8.74313C17.7098 8.68481 17.5959 8.65408 17.48 8.65408C17.364 8.65408 17.2502 8.68481 17.15 8.74313Z" fill="#DCEDC8"/>
</svg>
