<svg width="24" height="25" viewBox="0 0 24 25" fill="none" xmlns="http://www.w3.org/2000/svg">
<path d="M19 20.2131H4C3.46957 20.2131 2.96086 20.0024 2.58579 19.6273C2.21071 19.2523 2 18.7436 2 18.2131V6.21313C2 5.10313 2.89 4.21313 4 4.21313H10L12 6.21313H19C20.097 6.21313 21 7.11613 21 8.21313H4V18.2131L6.14 10.2131H23.21L20.93 18.7131C20.7 19.5831 19.92 20.2131 19 20.2131Z" fill="#8BC34A"/>
<path d="M17.1501 8.74313L11.6601 11.9131C11.4501 12.0331 11.3301 12.2531 11.3301 12.4831V18.8231C11.3301 19.0631 11.4601 19.2831 11.6601 19.3931L17.1501 22.5731C17.3601 22.6931 17.6101 22.6931 17.8101 22.5731L23.3001 19.4031C23.5001 19.2831 23.6301 19.0631 23.6301 18.8331V12.4931C23.6301 12.2531 23.5001 12.0331 23.3001 11.9231L17.8101 8.74313C17.7099 8.68481 17.596 8.65408 17.4801 8.65408C17.3641 8.65408 17.2503 8.68481 17.1501 8.74313Z" fill="#DCEDC8"/>
</svg>
