<svg width="24" height="25" viewBox="0 0 24 25" fill="none" xmlns="http://www.w3.org/2000/svg">
<path d="M10 4.21313H4C2.89 4.21313 2 5.10313 2 6.21313V18.2131C2 19.3101 2.903 20.2131 4 20.2131H20C21.097 20.2131 22 19.3101 22 18.2131V8.21313C22 7.6827 21.7893 7.17399 21.4142 6.79892C21.0391 6.42385 20.5304 6.21313 20 6.21313H12L10 4.21313Z" fill="#039BE5"/>
<path fill-rule="evenodd" clip-rule="evenodd" d="M20.036 16.9591C20.086 16.5511 20.123 16.1421 20.123 15.7221C20.123 15.3021 20.086 14.8921 20.036 14.4841H22.127C22.226 14.8801 22.287 15.2941 22.287 15.7221C22.2845 16.1395 22.2307 16.5549 22.127 16.9591M18.941 20.3991C19.312 19.7121 19.597 18.9691 19.795 18.1961H21.62C21.0206 19.2285 20.0696 20.0105 18.941 20.3991ZM18.786 16.9591H15.891C15.829 16.5511 15.792 16.1421 15.792 15.7221C15.792 15.3021 15.829 14.8871 15.892 14.4841H18.786C18.842 14.8871 18.886 15.3011 18.886 15.7221C18.886 16.1431 18.842 16.5511 18.786 16.9591ZM17.339 20.6461C16.8143 19.8992 16.4151 19.0717 16.157 18.1961H18.52C18.2622 19.0716 17.8633 19.8991 17.339 20.6461ZM14.864 13.2471H13.058C13.6511 12.2125 14.6011 11.4297 15.73 11.0451C15.36 11.7311 15.08 12.4741 14.864 13.2471ZM13.058 18.1971H14.864C15.081 18.9701 15.359 19.7121 15.73 20.3991C14.6033 20.0101 13.6546 19.229 13.058 18.1971ZM12.55 16.9591C12.4462 16.5549 12.3925 16.1395 12.39 15.7221C12.3924 15.3045 12.4462 14.8887 12.55 14.4841H14.641C14.592 14.8931 14.555 15.3011 14.555 15.7221C14.555 16.1431 14.592 16.5511 14.641 16.9591M17.339 10.7911C17.8633 11.5403 18.2622 12.3698 18.52 13.2471H16.157C16.4151 12.3697 16.8143 11.5402 17.339 10.7911ZM21.619 13.2471H19.795C19.6012 12.481 19.3144 11.7415 18.941 11.0451C20.0707 11.4313 21.0224 12.2135 21.62 13.2471M17.339 9.53513C15.6986 9.53671 14.1258 10.1891 12.9659 11.349C11.8059 12.509 11.1536 14.0817 11.152 15.7221C11.152 16.5346 11.312 17.3391 11.623 18.0896C11.9339 18.8402 12.3896 19.5222 12.9642 20.0966C13.5387 20.6711 14.2208 21.1267 14.9714 21.4375C15.722 21.7483 16.5265 21.9083 17.339 21.9081C18.9796 21.9081 20.553 21.2564 21.7131 20.0963C22.8732 18.9362 23.525 17.3628 23.525 15.7221C23.5251 14.9097 23.3652 14.1052 23.0544 13.3545C22.7436 12.6039 22.2879 11.9218 21.7135 11.3473C21.1391 10.7728 20.4571 10.317 19.7065 10.0061C18.9559 9.69517 18.1514 9.53513 17.339 9.53513Z" fill="#B3E5FC"/>
</svg>
