<svg width="24" height="25" viewBox="0 0 24 25" fill="none" xmlns="http://www.w3.org/2000/svg">
<path d="M19 20.2131H4C3.46957 20.2131 2.96086 20.0024 2.58579 19.6273C2.21071 19.2523 2 18.7436 2 18.2131V6.21313C2 5.10313 2.89 4.21313 4 4.21313H10L12 6.21313H19C20.097 6.21313 21 7.11613 21 8.21313H4V18.2131L6.14 10.2131H23.21L20.93 18.7131C20.7 19.5831 19.92 20.2131 19 20.2131Z" fill="#039BE5"/>
<path d="M20.0373 16.9591C20.0873 16.5511 20.1243 16.1421 20.1243 15.7221C20.1243 15.3021 20.0873 14.8921 20.0373 14.4841H22.1283C22.2273 14.8801 22.2883 15.2941 22.2883 15.7221C22.2858 16.1395 22.2321 16.5549 22.1283 16.9591M18.9423 20.3991C19.3133 19.7121 19.5983 18.9691 19.7963 18.1961H21.6213C21.0218 19.2287 20.0714 20.0108 18.9423 20.3991ZM18.7873 16.9591H15.8923C15.8303 16.5511 15.7933 16.1421 15.7933 15.7221C15.7933 15.3021 15.8303 14.8871 15.8923 14.4841H18.7873C18.8433 14.8871 18.8873 15.3011 18.8873 15.7221C18.8873 16.1431 18.8433 16.5511 18.7873 16.9591ZM17.3403 20.6461C16.8157 19.8992 16.4164 19.0717 16.1583 18.1961H18.5213C18.2635 19.0716 17.8646 19.8991 17.3403 20.6461ZM14.8653 13.2471H13.0603C13.6535 12.2125 14.6035 11.4297 15.7323 11.0451C15.3626 11.7446 15.0721 12.4832 14.8663 13.2471M13.0603 18.1971H14.8663C15.0833 18.9701 15.3613 19.7121 15.7323 20.3991C14.6056 20.0101 13.657 19.229 13.0603 18.1971ZM12.5523 16.9591C12.4486 16.5549 12.3948 16.1395 12.3923 15.7221C12.3948 15.3045 12.4485 14.8887 12.5523 14.4841H14.6433C14.5933 14.8931 14.5573 15.3011 14.5573 15.7221C14.5573 16.1431 14.5943 16.5511 14.6433 16.9591M17.3413 10.7911C17.8657 11.5403 18.2645 12.3698 18.5223 13.2471H16.1593C16.4174 12.3697 16.8166 11.5402 17.3413 10.7911ZM21.6213 13.2471H19.7973C19.6036 12.481 19.3168 11.7415 18.9433 11.0451C20.073 11.4314 21.0237 12.2136 21.6213 13.2471ZM17.3403 9.53513C15.6999 9.53671 14.1271 10.1891 12.9672 11.349C11.8073 12.509 11.1549 14.0817 11.1533 15.7221C11.1533 16.5346 11.3134 17.3391 11.6243 18.0896C11.9352 18.8402 12.391 19.5222 12.9655 20.0966C13.54 20.6711 14.2221 21.1267 14.9727 21.4375C15.7234 21.7483 16.5279 21.9083 17.3403 21.9081C18.9809 21.9081 20.5544 21.2564 21.7145 20.0963C22.8746 18.9362 23.5263 17.3628 23.5263 15.7221C23.5265 14.9097 23.3665 14.1052 23.0557 13.3545C22.7449 12.6039 22.2893 11.9218 21.7148 11.3473C21.1404 10.7728 20.4584 10.317 19.7078 10.0061C18.9572 9.69517 18.1528 9.53513 17.3403 9.53513Z" fill="#B3E5FC"/>
</svg>
