<svg width="24" height="25" viewBox="0 0 24 25" fill="none" xmlns="http://www.w3.org/2000/svg">
<path d="M19 20.2131H4C3.46957 20.2131 2.96086 20.0024 2.58579 19.6273C2.21071 19.2523 2 18.7436 2 18.2131V6.21313C2 5.10313 2.89 4.21313 4 4.21313H10L12 6.21313H19C20.097 6.21313 21 7.11613 21 8.21313H4V18.2131L6.14 10.2131H23.21L20.93 18.7131C20.7 19.5831 19.92 20.2131 19 20.2131Z" fill="#4CAF50"/>
<path d="M15.5968 21.8911C15.5473 21.8909 15.4979 21.8848 15.4498 21.8731C15.2726 21.8204 15.1216 21.7031 15.0266 21.5444C14.9316 21.3858 14.8996 21.1973 14.9368 21.0161L16.8518 10.8161C16.869 10.7188 16.9056 10.6259 16.9596 10.5431C17.0136 10.4603 17.0837 10.3892 17.1658 10.3341C17.2378 10.2866 17.3188 10.2543 17.4038 10.2393C17.4887 10.2244 17.5759 10.227 17.6598 10.2471C17.8373 10.2999 17.9885 10.4173 18.0837 10.5761C18.1788 10.735 18.211 10.9237 18.1738 11.1051L16.2538 21.3051C16.2369 21.4022 16.2006 21.4949 16.147 21.5775C16.0934 21.6602 16.0236 21.7312 15.9418 21.7861C15.8394 21.8539 15.7195 21.8904 15.5968 21.8911ZM19.4358 20.4461H19.3878C19.2947 20.4377 19.2044 20.4096 19.123 20.3635C19.0416 20.3175 18.971 20.2546 18.9158 20.1791C18.8073 20.0305 18.7548 19.8484 18.7676 19.6648C18.7804 19.4813 18.8577 19.3082 18.9858 19.1761L22.2778 15.9581L18.9998 12.9631C18.8679 12.835 18.7856 12.6644 18.7673 12.4814C18.749 12.2984 18.7959 12.1149 18.8998 11.9631C18.9532 11.8854 19.0225 11.8199 19.1032 11.7711C19.184 11.7223 19.2741 11.6913 19.3678 11.6801C19.4584 11.6705 19.55 11.6804 19.6364 11.7092C19.7229 11.738 19.8021 11.785 19.8688 11.8471L23.7348 15.3811C23.867 15.509 23.9497 15.6795 23.9683 15.8625C23.987 16.0455 23.9404 16.2292 23.8368 16.3811C23.8075 16.4231 23.774 16.462 23.7368 16.4971L19.8868 20.2601C19.7667 20.3791 19.6048 20.4452 19.4358 20.4461ZM13.6718 20.4481C13.5022 20.4467 13.3399 20.3789 13.2198 20.2591L9.36678 16.4941C9.2934 16.4216 9.23524 16.3351 9.19574 16.2397C9.15623 16.1444 9.13617 16.0421 9.13673 15.9389C9.13729 15.8357 9.15846 15.7336 9.19899 15.6387C9.23953 15.5438 9.29862 15.4579 9.37279 15.3861L13.2398 11.8531C13.3051 11.7908 13.3832 11.7433 13.4687 11.7142C13.5542 11.685 13.645 11.6747 13.7348 11.6841C13.9248 11.7061 14.0958 11.8091 14.2048 11.9671C14.3092 12.119 14.3564 12.303 14.3381 12.4864C14.3198 12.6698 14.2372 12.8409 14.1048 12.9691L10.8288 15.9621L14.1208 19.1781C14.3878 19.4481 14.4178 19.8771 14.1918 20.1811C14.1366 20.2568 14.0658 20.3198 13.9842 20.3659C13.9026 20.4119 13.8121 20.44 13.7188 20.4481H13.6718Z" fill="#C8E6C9"/>
</svg>
