<svg width="24" height="25" viewBox="0 0 24 25" fill="none" xmlns="http://www.w3.org/2000/svg">
<path d="M19 20.2131H4C3.46957 20.2131 2.96086 20.0024 2.58579 19.6273C2.21071 19.2523 2 18.7436 2 18.2131V6.21313C2 5.10313 2.89 4.21313 4 4.21313H10L12 6.21313H19C20.097 6.21313 21 7.11613 21 8.21313H4V18.2131L6.14 10.2131H23.21L20.93 18.7131C20.7 19.5831 19.92 20.2131 19 20.2131Z" fill="#4CAF50"/>
<path d="M15.597 21.8911C15.5475 21.8909 15.4982 21.8848 15.45 21.8731C15.2728 21.8204 15.1218 21.7031 15.0268 21.5444C14.9319 21.3858 14.8998 21.1973 14.937 21.0161L16.852 10.8161C16.8692 10.7188 16.9059 10.6259 16.9598 10.5431C17.0138 10.4603 17.0839 10.3892 17.166 10.3341C17.238 10.2866 17.319 10.2543 17.404 10.2393C17.489 10.2244 17.5761 10.227 17.66 10.2471C17.8375 10.2999 17.9888 10.4173 18.0839 10.5761C18.1791 10.735 18.2112 10.9237 18.174 11.1051L16.254 21.3051C16.2372 21.4022 16.2008 21.4949 16.1472 21.5775C16.0936 21.6602 16.0238 21.7312 15.942 21.7861C15.8397 21.8539 15.7198 21.8904 15.597 21.8911ZM19.436 20.4461H19.388C19.2949 20.4377 19.2046 20.4096 19.1232 20.3635C19.0419 20.3175 18.9712 20.2546 18.916 20.1791C18.8075 20.0305 18.755 19.8484 18.7679 19.6648C18.7807 19.4813 18.8579 19.3082 18.986 19.1761L22.278 15.9581L19 12.9631C18.8682 12.835 18.7858 12.6644 18.7675 12.4814C18.7492 12.2984 18.7962 12.1149 18.9 11.9631C18.9534 11.8854 19.0228 11.8199 19.1035 11.7711C19.1842 11.7223 19.2744 11.6913 19.368 11.6801C19.4586 11.6705 19.5502 11.6804 19.6367 11.7092C19.7231 11.738 19.8024 11.785 19.869 11.8471L23.735 15.3811C23.8672 15.509 23.9499 15.6795 23.9686 15.8625C23.9873 16.0455 23.9407 16.2292 23.837 16.3811C23.8078 16.4231 23.7743 16.462 23.737 16.4971L19.887 20.2601C19.7669 20.3791 19.605 20.4452 19.436 20.4461ZM13.672 20.4481C13.5024 20.4467 13.3402 20.3789 13.22 20.2591L9.36703 16.4941C9.29364 16.4216 9.23549 16.3351 9.19598 16.2397C9.15648 16.1444 9.13642 16.0421 9.13697 15.9389C9.13753 15.8357 9.1587 15.7336 9.19924 15.6387C9.23977 15.5438 9.29886 15.4579 9.37303 15.3861L13.24 11.8531C13.3054 11.7908 13.3835 11.7433 13.4689 11.7142C13.5544 11.685 13.6452 11.6747 13.735 11.6841C13.925 11.7061 14.096 11.8091 14.205 11.9671C14.3094 12.119 14.3567 12.303 14.3384 12.4864C14.3201 12.6698 14.2374 12.8409 14.105 12.9691L10.829 15.9621L14.121 19.1781C14.388 19.4481 14.418 19.8771 14.192 20.1811C14.1368 20.2568 14.066 20.3198 13.9845 20.3659C13.9029 20.4119 13.8124 20.44 13.719 20.4481H13.672Z" fill="#C8E6C9"/>
</svg>
