<svg width="24" height="25" viewBox="0 0 24 25" fill="none" xmlns="http://www.w3.org/2000/svg">
<path d="M10 4.21313H4C2.89 4.21313 2 5.10313 2 6.21313V18.2131C2 19.3101 2.903 20.2131 4 20.2131H20C21.097 20.2131 22 19.3101 22 18.2131V8.21313C22 7.6827 21.7893 7.17399 21.4142 6.79892C21.0391 6.42385 20.5304 6.21313 20 6.21313H12L10 4.21313Z" fill="#4CAF50"/>
<path d="M15.5968 21.8911C15.5473 21.8909 15.4979 21.8848 15.4498 21.8731C15.2726 21.8204 15.1216 21.7031 15.0266 21.5444C14.9316 21.3857 14.8996 21.1973 14.9368 21.0161L16.8518 10.8161C16.869 10.7188 16.9056 10.6259 16.9596 10.5431C17.0136 10.4603 17.0837 10.3892 17.1658 10.3341C17.2379 10.2864 17.3191 10.2541 17.4042 10.2391C17.4894 10.2242 17.5767 10.2269 17.6608 10.2471C17.8381 10.3001 17.9891 10.4176 18.0841 10.5764C18.179 10.7352 18.211 10.9239 18.1738 11.1051L16.2538 21.3051C16.2369 21.4022 16.2006 21.4949 16.147 21.5775C16.0934 21.6602 16.0236 21.7312 15.9418 21.7861C15.8394 21.8539 15.7195 21.8904 15.5968 21.8911ZM19.4358 20.4461H19.3878C19.2947 20.4377 19.2044 20.4095 19.123 20.3635C19.0416 20.3175 18.971 20.2546 18.9158 20.1791C18.8073 20.0305 18.7548 19.8484 18.7676 19.6648C18.7804 19.4813 18.8577 19.3082 18.9858 19.1761L22.2788 15.9581L18.9998 12.9631C18.8679 12.835 18.7856 12.6643 18.7673 12.4814C18.749 12.2984 18.7959 12.1149 18.8998 11.9631C18.9531 11.8855 19.0223 11.8201 19.1028 11.7713C19.1833 11.7225 19.2733 11.6914 19.3668 11.6801C19.4574 11.6704 19.549 11.6804 19.6354 11.7092C19.7219 11.738 19.8011 11.785 19.8678 11.8471L23.7338 15.3811C23.866 15.509 23.9487 15.6795 23.9673 15.8625C23.986 16.0455 23.9394 16.2292 23.8358 16.3811C23.8065 16.4231 23.773 16.462 23.7358 16.4971L19.8858 20.2601C19.7657 20.3791 19.6038 20.4462 19.4348 20.4471L19.4358 20.4461ZM13.6718 20.4481C13.5025 20.4464 13.3407 20.3786 13.2208 20.2591L9.36678 16.4941C9.2934 16.4216 9.23524 16.3351 9.19574 16.2397C9.15623 16.1444 9.13617 16.0421 9.13673 15.9389C9.13729 15.8357 9.15846 15.7336 9.19899 15.6387C9.23953 15.5438 9.29862 15.4579 9.37279 15.3861L13.2398 11.8531C13.3051 11.7908 13.3832 11.7433 13.4687 11.7142C13.5542 11.685 13.645 11.6747 13.7348 11.6841C13.9248 11.7061 14.0958 11.8091 14.2048 11.9671C14.3093 12.1189 14.3567 12.3028 14.3386 12.4862C14.3205 12.6697 14.238 12.8407 14.1058 12.9691L10.8288 15.9621L14.1218 19.1781C14.3878 19.4481 14.4188 19.8771 14.1918 20.1811C14.1367 20.2567 14.0661 20.3196 13.9847 20.3657C13.9033 20.4117 13.8129 20.4398 13.7198 20.4481H13.6718Z" fill="#C8E6C9"/>
</svg>
