<svg width="24" height="25" viewBox="0 0 24 25" fill="none" xmlns="http://www.w3.org/2000/svg">
<path d="M10 4.21313H4C3.46957 4.21313 2.96086 4.42385 2.58579 4.79892C2.21071 5.17399 2 5.6827 2 6.21313V18.2131C2 19.3131 2.9 20.2131 4 20.2131H20C21.1 20.2131 22 19.3131 22 18.2131V8.21313C22 7.6827 21.7893 7.17399 21.4142 6.79892C21.0391 6.42385 20.5304 6.21313 20 6.21313H12L10 4.21313Z" fill="#FF4081"/>
<path d="M17.9 12.6831C17.9 13.0631 20.49 12.8831 20.84 12.6131C20.84 9.99315 19.43 8.61315 16.85 8.61315C14.28 8.61315 12.84 10.0131 12.84 12.1131C12.84 15.7631 17.77 15.8331 17.77 17.8231C17.77 18.3831 17.49 18.7231 16.89 18.7231C16.1 18.7231 15.79 18.3231 15.83 16.9531C15.83 16.6531 12.83 16.5631 12.74 16.9531C12.51 20.2531 14.57 21.2131 16.93 21.2131C19.2 21.2131 21 19.9931 21 17.7931C21 13.8731 16 13.9831 16 12.0431C16 11.2531 16.58 11.1431 16.93 11.1431C17.29 11.1431 17.95 11.2131 17.89 12.6831H17.9ZM5.5 6.56315L5.6 4.13315H7.5L7.58 6.48315C7.58 6.511 7.57224 6.53831 7.5576 6.56201C7.54295 6.5857 7.522 6.60485 7.49708 6.61731C7.47217 6.62977 7.44427 6.63504 7.41653 6.63254C7.38879 6.63004 7.36229 6.61986 7.34 6.60315L6.61 6.02315L5.74 6.68315C5.71771 6.69986 5.69121 6.71004 5.66347 6.71254C5.63573 6.71504 5.60783 6.70977 5.58292 6.69731C5.558 6.68485 5.53705 6.6657 5.5224 6.64201C5.50776 6.61831 5.5 6.591 5.5 6.56315Z" fill="#FFCDD2"/>
</svg>
