<svg width="24" height="24" viewBox="0 0 24 24" fill="none" xmlns="http://www.w3.org/2000/svg">
<path d="M10 4H4C2.89 4 2 4.89 2 6V18C2 19.097 2.903 20 4 20H20C21.097 20 22 19.097 22 18V8C22 7.46957 21.7893 6.96086 21.4142 6.58579C21.0391 6.21071 20.5304 6 20 6H12L10 4Z" fill="#FF7043"/>
<path fill-rule="evenodd" clip-rule="evenodd" d="M12.4871 21.8681L11.3845 9.5004H23.5003L22.3964 21.8661L17.4352 23.2415L12.4871 21.8681ZM16.9516 18.6684L13.0256 16.3081V15.4529L16.9516 13.0921V14.4158L14.4468 15.8802L16.9516 17.3453V18.6684ZM17.9332 18.667V17.3446L20.4556 15.8802L17.9332 14.4165V13.0934L21.8592 15.4431V16.3173L17.9332 18.667Z" fill="#FFCCBC"/>
</svg>
