<svg width="24" height="24" viewBox="0 0 24 24" fill="none" xmlns="http://www.w3.org/2000/svg">
<path d="M19 20H4C3.46957 20 2.96086 19.7893 2.58579 19.4142C2.21071 19.0391 2 18.5304 2 18V6C2 4.89 2.89 4 4 4H10L12 6H19C20.097 6 21 6.903 21 8H4V18L6.14 10H23.21L20.93 18.5C20.7 19.37 19.92 20 19 20Z" fill="#FF7043"/>
<path fill-rule="evenodd" clip-rule="evenodd" d="M12.4873 21.8681L11.3848 9.5004H23.5005L22.3967 21.8661L17.4354 23.2415L12.4873 21.8681ZM16.9519 18.6684L13.0259 16.3081V15.4529L16.9519 13.0921V14.4158L14.4471 15.8802L16.9519 17.3453V18.6684ZM17.9334 18.667V17.3446L20.4559 15.8802L17.9334 14.4165V13.0934L21.8594 15.4431V16.3173L17.9334 18.667Z" fill="#FFCCBC"/>
</svg>
