<svg width="202" height="883" viewBox="0 0 202 883" fill="none" xmlns="http://www.w3.org/2000/svg">
    <path opacity="0.04"
        d="M70 882.9H1.2L1.2 858.8C1.2 852.667 1.53333 847.667 2.19999 843.8C2.79999 839.933 3.86666 836.9 5.4 834.7C6.86666 832.5 8.93333 830.933 11.6 830C14.2 829 17.4667 828.367 21.4 828.1C25.3333 827.833 30.0667 827.7 35.6 827.7C41.1333 827.7 45.8667 827.833 49.8 828.1C53.7333 828.367 57.0333 829 59.7 830C62.3 830.933 64.3667 832.5 65.9 834.7C67.3667 836.9 68.4333 839.933 69.1 843.8C69.7 847.667 70 852.667 70 858.8V882.9ZM56.6 865.5V859.2C56.6 856.467 56.5333 854.233 56.4 852.5C56.2 850.767 55.8 849.4 55.2 848.4C54.5333 847.333 53.4667 846.6 52 846.2C50.4667 845.733 48.4 845.467 45.8 845.4C43.1333 845.267 39.7333 845.2 35.6 845.2C31.4667 845.2 28.1 845.267 25.5 845.4C22.8333 845.467 20.7667 845.733 19.3 846.2C17.7667 846.667 16.6667 847.4 16 848.4C15.3333 849.4 14.9333 850.767 14.8 852.5C14.6667 854.233 14.6 856.467 14.6 859.2V865.5H56.6ZM70 810.627H1.2L1.2 762.427H14.6V793.227H28.7V767.127H41.9L41.9 793.227H56.6L56.6 762.427H70L70 810.627ZM70.8 720.282C70.8 722.949 70.7333 725.849 70.6 728.982C70.4667 732.049 70.2667 735.082 70 738.082C69.7333 741.015 69.4667 743.649 69.2 745.982H56.3C56.5 743.515 56.7 741.049 56.9 738.582C57.1 736.049 57.2333 733.649 57.3 731.382C57.3667 729.115 57.4 727.215 57.4 725.682C57.4 722.482 57.3 720.049 57.1 718.382C56.8333 716.715 56.4667 715.482 56 714.682C55.5333 714.149 55.0333 713.782 54.5 713.582C53.9667 713.315 53.3333 713.149 52.6 713.082C51.8667 713.015 51.0333 712.982 50.1 712.982C48.7 712.982 47.6 713.082 46.8 713.282C45.9333 713.415 45.2667 713.749 44.8 714.282C44.3333 714.749 44 715.482 43.8 716.482C43.5333 717.482 43.3 718.782 43.1 720.382L41.3 734.482C40.9667 737.215 40.3 739.449 39.3 741.182C38.2333 742.915 36.8333 744.282 35.1 745.282C33.3667 746.282 31.3333 746.982 29 747.382C26.6 747.782 23.9333 747.982 21 747.982C16.4667 747.982 12.8667 747.315 10.2 745.982C7.46666 744.649 5.39999 742.815 4 740.482C2.53333 738.082 1.56666 735.315 1.1 732.182C0.633329 728.982 0.399994 725.515 0.399994 721.782C0.399994 719.115 0.499995 716.349 0.699996 713.482C0.833328 710.615 1.06666 707.915 1.39999 705.382C1.66666 702.849 1.99999 700.749 2.39999 699.082H15C14.7333 700.749 14.5333 702.715 14.4 704.982C14.2 707.182 14.0667 709.482 14 711.882C13.8667 714.282 13.8 716.549 13.8 718.682C13.8 721.282 13.9 723.349 14.1 724.882C14.2333 726.415 14.5333 727.615 15 728.482C15.5333 729.415 16.2333 730.015 17.1 730.282C17.9667 730.482 19.0667 730.582 20.4 730.582C22.0667 730.582 23.3667 730.449 24.3 730.182C25.1667 729.915 25.7667 729.315 26.1 728.382C26.4333 727.449 26.7333 726.015 27 724.082L28.6 710.382C28.8 708.515 29.1333 706.815 29.6 705.282C30.0667 703.682 30.8 702.249 31.8 700.982C32.8 699.649 34.2333 698.549 36.1 697.682C36.9667 697.215 38.0333 696.849 39.3 696.582C40.5 696.315 41.9 696.082 43.5 695.882C45.1 695.682 46.9 695.582 48.9 695.582C52.8333 695.582 56.1667 695.982 58.9 696.782C61.5667 697.582 63.7 698.715 65.3 700.182C66.8333 701.649 68.0333 703.415 68.9 705.482C69.7 707.549 70.2 709.849 70.4 712.382C70.6667 714.849 70.8 717.482 70.8 720.282ZM70 679.361H1.2V631.161H14.6V661.961H28.7V635.861H41.9V661.961H56.6V631.161H70V679.361ZM70 614.216H1.2V596.316L38.1 573.916V573.416H1.2L1.2 556.716H70V573.016L29.7 597.016V597.516H70V614.216ZM70 523.537L1.2 544.137V526.337L51.6 512.137V511.437L1.2 497.337V479.937L70 500.537V523.537ZM70.8 440.205C70.8 446.005 70.4667 450.771 69.8 454.505C69.0667 458.171 67.9333 461.038 66.4 463.105C64.8 465.171 62.6667 466.705 60 467.705C57.2667 468.638 53.9 469.238 49.9 469.505C45.9 469.705 41.1333 469.805 35.6 469.805C30.0667 469.805 25.3 469.705 21.3 469.505C17.3 469.238 13.9667 468.638 11.3 467.705C8.56666 466.705 6.43333 465.171 4.9 463.105C3.3 461.038 2.16666 458.171 1.49999 454.505C0.76666 450.771 0.399994 446.005 0.399994 440.205C0.399994 434.471 0.76666 429.771 1.49999 426.105C2.16666 422.371 3.3 419.438 4.9 417.305C6.43333 415.171 8.56666 413.638 11.3 412.705C13.9667 411.771 17.3 411.171 21.3 410.905C25.3 410.638 30.0667 410.505 35.6 410.505C41.1333 410.505 45.9 410.638 49.9 410.905C53.9 411.171 57.2667 411.771 60 412.705C62.6667 413.638 64.8 415.171 66.4 417.305C67.9333 419.438 69.0667 422.371 69.8 426.105C70.4667 429.771 70.8 434.471 70.8 440.205ZM57.4 440.205C57.4 437.805 57.3333 435.871 57.2 434.405C57 432.871 56.5667 431.671 55.9 430.805C55.1667 429.938 54.0333 429.305 52.5 428.905C50.9667 428.505 48.8333 428.271 46.1 428.205C43.3667 428.071 39.8667 428.005 35.6 428.005C31.3333 428.005 27.8333 428.071 25.1 428.205C22.3667 428.271 20.2333 428.505 18.7 428.905C17.1667 429.305 16.0667 429.938 15.4 430.805C14.6667 431.671 14.2333 432.871 14.1 434.405C13.9 435.871 13.8 437.805 13.8 440.205C13.8 442.538 13.9 444.471 14.1 446.005C14.2333 447.538 14.6667 448.738 15.4 449.605C16.0667 450.471 17.1667 451.105 18.7 451.505C20.2333 451.905 22.3667 452.171 25.1 452.305C27.8333 452.371 31.3333 452.405 35.6 452.405C39.8667 452.405 43.3667 452.371 46.1 452.305C48.8333 452.171 50.9667 451.905 52.5 451.505C54.0333 451.105 55.1667 450.471 55.9 449.605C56.5667 448.738 57 447.538 57.2 446.005C57.3333 444.471 57.4 442.538 57.4 440.205ZM70 393.392H1.2L1.2 375.992H56V349.192H70V393.392ZM70 324.881L1.2 345.481V327.681L51.6 313.481V312.781L1.2 298.681V281.281L70 301.881V324.881ZM70 268.572H1.2L1.2 220.372H14.6L14.6 251.172H28.7L28.7 225.072H41.9V251.172H56.6V220.372H70V268.572ZM70 203.427H1.2V179.327C1.2 173.194 1.53333 168.194 2.19999 164.327C2.79999 160.461 3.86666 157.427 5.4 155.227C6.86666 153.027 8.93333 151.461 11.6 150.527C14.2 149.527 17.4667 148.894 21.4 148.627C25.3333 148.361 30.0667 148.227 35.6 148.227C41.1333 148.227 45.8667 148.361 49.8 148.627C53.7333 148.894 57.0333 149.527 59.7 150.527C62.3 151.461 64.3667 153.027 65.9 155.227C67.3667 157.427 68.4333 160.461 69.1 164.327C69.7 168.194 70 173.194 70 179.327V203.427ZM56.6 186.027V179.727C56.6 176.994 56.5333 174.761 56.4 173.027C56.2 171.294 55.8 169.927 55.2 168.927C54.5333 167.861 53.4667 167.127 52 166.727C50.4667 166.261 48.4 165.994 45.8 165.927C43.1333 165.794 39.7333 165.727 35.6 165.727C31.4667 165.727 28.1 165.794 25.5 165.927C22.8333 165.994 20.7667 166.261 19.3 166.727C17.7667 167.194 16.6667 167.927 16 168.927C15.3333 169.927 14.9333 171.294 14.8 173.027C14.6667 174.761 14.6 176.994 14.6 179.727V186.027H56.6ZM70.8 103.154C70.8 108.954 70.4667 113.721 69.8 117.454C69.0667 121.121 67.9333 123.987 66.4 126.054C64.8 128.121 62.6667 129.654 60 130.654C57.2667 131.587 53.9 132.187 49.9 132.454C45.9 132.654 41.1333 132.754 35.6 132.754C30.0667 132.754 25.3 132.654 21.3 132.454C17.3 132.187 13.9667 131.587 11.3 130.654C8.56666 129.654 6.43333 128.121 4.9 126.054C3.3 123.987 2.16666 121.121 1.49999 117.454C0.76666 113.721 0.399994 108.954 0.399994 103.154C0.399994 97.4206 0.76666 92.7206 1.49999 89.054C2.16666 85.3206 3.3 82.3873 4.9 80.254C6.43333 78.1206 8.56666 76.5873 11.3 75.654C13.9667 74.7206 17.3 74.1206 21.3 73.8539C25.3 73.5873 30.0667 73.454 35.6 73.454C41.1333 73.454 45.9 73.5873 49.9 73.8539C53.9 74.1206 57.2667 74.7206 60 75.654C62.6667 76.5873 64.8 78.1206 66.4 80.254C67.9333 82.3873 69.0667 85.3206 69.8 89.054C70.4667 92.7206 70.8 97.4206 70.8 103.154ZM57.4 103.154C57.4 100.754 57.3333 98.8206 57.2 97.354C57 95.8206 56.5667 94.6206 55.9 93.754C55.1667 92.8873 54.0333 92.254 52.5 91.854C50.9667 91.454 48.8333 91.2206 46.1 91.154C43.3667 91.0206 39.8667 90.954 35.6 90.954C31.3333 90.954 27.8333 91.0206 25.1 91.154C22.3667 91.2206 20.2333 91.454 18.7 91.854C17.1667 92.254 16.0667 92.8873 15.4 93.754C14.6667 94.6206 14.2333 95.8206 14.1 97.354C13.9 98.8206 13.8 100.754 13.8 103.154C13.8 105.487 13.9 107.421 14.1 108.954C14.2333 110.487 14.6667 111.687 15.4 112.554C16.0667 113.421 17.1667 114.054 18.7 114.454C20.2333 114.854 22.3667 115.121 25.1 115.254C27.8333 115.321 31.3333 115.354 35.6 115.354C39.8667 115.354 43.3667 115.321 46.1 115.254C48.8333 115.121 50.9667 114.854 52.5 114.454C54.0333 114.054 55.1667 113.421 55.9 112.554C56.5667 111.687 57 110.487 57.2 108.954C57.3333 107.421 57.4 105.487 57.4 103.154ZM70 56.3415H1.2L1.2 22.2415C1.2 17.7748 1.7 14.1748 2.69999 11.4415C3.63333 8.64146 5.06666 6.54146 6.99999 5.14146C8.86666 3.67479 11.2 2.70812 14 2.24145C16.7333 1.70812 19.8667 1.44146 23.4 1.44146C26 1.44146 28.6333 1.64146 31.3 2.04146C33.9 2.44146 36.3 3.30812 38.5 4.64146C40.6333 5.90813 42.2667 7.87479 43.4 10.5415L70 0.141458V18.2415L42.5 27.9415L44.9 23.5415C45.2333 24.1415 45.4333 24.7748 45.5 25.4415C45.5667 26.0415 45.6 26.8081 45.6 27.7415V38.9415H70V56.3415ZM32.7 38.9415V28.9415C32.7 26.6748 32.6 24.8748 32.4 23.5415C32.1333 22.1415 31.6667 21.1081 31 20.4415C30.3333 19.7748 29.4 19.3415 28.2 19.1415C27 18.9415 25.4667 18.8415 23.6 18.8415C21.6667 18.8415 20.1 18.9415 18.9 19.1415C17.7 19.2748 16.8 19.6748 16.2 20.3415C15.5333 20.9415 15.0667 21.9415 14.8 23.3415C14.5333 24.6748 14.4 26.5415 14.4 28.9415V38.9415H32.7ZM201 882.9H132.2V848.2C132.2 843.8 132.833 840.167 134.1 837.3C135.367 834.367 137.3 832.2 139.9 830.8C142.433 829.333 145.633 828.6 149.5 828.6C152.7 828.6 155.4 829.033 157.6 829.9C159.8 830.767 161.567 832.1 162.9 833.9C164.167 835.633 165.1 837.867 165.7 840.6H166.1C166.7 837.667 167.633 835.3 168.9 833.5C170.167 831.633 171.933 830.267 174.2 829.4C176.4 828.533 179.233 828.1 182.7 828.1C185.567 828.1 188.133 828.467 190.4 829.2C192.667 829.867 194.6 831 196.2 832.6C197.733 834.133 198.933 836.2 199.8 838.8C200.6 841.333 201 844.467 201 848.2V882.9ZM188 865.6V854.3C188 851.9 187.8 850.067 187.4 848.8C186.933 847.533 186.133 846.667 185 846.2C183.867 845.733 182.267 845.5 180.2 845.5C178.067 845.5 176.433 845.733 175.3 846.2C174.167 846.667 173.4 847.567 173 848.9C172.533 850.167 172.3 851.967 172.3 854.3V865.6H188ZM160.2 865.6V854.6C160.2 852.333 160 850.567 159.6 849.3C159.133 848.033 158.367 847.167 157.3 846.7C156.233 846.167 154.733 845.9 152.8 845.9C150.733 845.9 149.167 846.133 148.1 846.6C147.033 847 146.3 847.833 145.9 849.1C145.5 850.3 145.3 852.133 145.3 854.6V865.6H160.2ZM201 817.708L132.2 795.908V772.208L201 750.308V767.908L187.5 772.008V796.508L201 800.508V817.708ZM174.4 792.808V775.808L147.2 784.008V784.708L174.4 792.808ZM201.8 710.265C201.8 715.465 201.467 719.798 200.8 723.265C200.067 726.732 198.9 729.565 197.3 731.765C195.7 733.898 193.567 735.532 190.9 736.665C188.233 737.732 184.9 738.465 180.9 738.865C176.9 739.265 172.133 739.465 166.6 739.465C161.067 739.465 156.3 739.265 152.3 738.865C148.3 738.465 144.967 737.732 142.3 736.665C139.633 735.532 137.5 733.898 135.9 731.765C134.3 729.565 133.167 726.732 132.5 723.265C131.767 719.798 131.4 715.465 131.4 710.265C131.4 708.265 131.467 706.198 131.6 704.065C131.733 701.932 131.933 699.865 132.2 697.865C132.467 695.865 132.8 694.165 133.2 692.765H145.7C145.5 694.832 145.333 696.732 145.2 698.465C145 700.132 144.9 701.598 144.9 702.865C144.833 704.132 144.8 705.198 144.8 706.065C144.8 709.132 144.933 711.665 145.2 713.665C145.4 715.598 145.9 717.132 146.7 718.265C147.5 719.398 148.7 720.232 150.3 720.765C151.833 721.298 153.933 721.665 156.6 721.865C159.2 721.998 162.533 722.065 166.6 722.065C170.6 722.065 173.933 721.998 176.6 721.865C179.267 721.665 181.4 721.298 183 720.765C184.6 720.232 185.8 719.398 186.6 718.265C187.333 717.132 187.833 715.598 188.1 713.665C188.3 711.665 188.4 709.132 188.4 706.065C188.4 703.998 188.333 701.665 188.2 699.065C188 696.465 187.767 694.232 187.5 692.365H200.3C200.567 693.832 200.8 695.598 201 697.665C201.267 699.732 201.467 701.865 201.6 704.065C201.733 706.198 201.8 708.265 201.8 710.265ZM201 676.334H132.2V658.934H159.4V653.834L132.2 635.034V616.234L164.9 639.734L201 615.934V635.434L172.6 653.834V658.934H201V676.334ZM179 610.555H166.1V583.255H179V610.555ZM201 566.65H132.2V518.45H145.6V549.25H159.7V523.15H172.9V549.25H187.6V518.45H201V566.65ZM201 501.505H132.2V483.605L169.1 461.205V460.705H132.2V444.005H201V460.305L160.7 484.305V484.805H201V501.505ZM201 425.326H132.2V401.226C132.2 395.092 132.533 390.092 133.2 386.226C133.8 382.359 134.867 379.326 136.4 377.126C137.867 374.926 139.933 373.359 142.6 372.426C145.2 371.426 148.467 370.792 152.4 370.526C156.333 370.259 161.067 370.126 166.6 370.126C172.133 370.126 176.867 370.259 180.8 370.526C184.733 370.792 188.033 371.426 190.7 372.426C193.3 373.359 195.367 374.926 196.9 377.126C198.367 379.326 199.433 382.359 200.1 386.226C200.7 390.092 201 395.092 201 401.226V425.326ZM187.6 407.926V401.626C187.6 398.892 187.533 396.659 187.4 394.926C187.2 393.192 186.8 391.826 186.2 390.826C185.533 389.759 184.467 389.026 183 388.626C181.467 388.159 179.4 387.892 176.8 387.826C174.133 387.692 170.733 387.626 166.6 387.626C162.467 387.626 159.1 387.692 156.5 387.826C153.833 387.892 151.767 388.159 150.3 388.626C148.767 389.092 147.667 389.826 147 390.826C146.333 391.826 145.933 393.192 145.8 394.926C145.667 396.659 145.6 398.892 145.6 401.626V407.926H187.6Z"
        fill="white" />
</svg>