<svg width="24" height="24" viewBox="0 0 24 24" fill="none" xmlns="http://www.w3.org/2000/svg">
<path d="M8.64 6.24C8.64 6.5248 8.55555 6.80321 8.39732 7.04002C8.23909 7.27683 8.01419 7.4614 7.75106 7.57039C7.48794 7.67938 7.1984 7.70789 6.91907 7.65233C6.63974 7.59677 6.38315 7.45962 6.18177 7.25823C5.98038 7.05685 5.84323 6.80026 5.78767 6.52093C5.73211 6.2416 5.76062 5.95206 5.86961 5.68894C5.9786 5.42581 6.16317 5.20091 6.39998 5.04268C6.63679 4.88445 6.91519 4.8 7.2 4.8C7.58191 4.8 7.94818 4.95171 8.21823 5.22177C8.48829 5.49182 8.64 5.85809 8.64 6.24ZM24 1.92V22.08C24 22.5892 23.7977 23.0776 23.4376 23.4376C23.0776 23.7977 22.5892 24 22.08 24H1.92C1.41078 24 0.922425 23.7977 0.562355 23.4376C0.202285 23.0776 0 22.5892 0 22.08V1.92C0 1.41078 0.202285 0.922425 0.562355 0.562355C0.922425 0.202285 1.41078 0 1.92 0H22.08C22.5892 0 23.0776 0.202285 23.4376 0.562355C23.7977 0.922425 24 1.41078 24 1.92ZM22.08 22.08V1.92H1.92V22.08H22.08ZM7.2 9.12C6.94539 9.12 6.70121 9.22114 6.52118 9.40118C6.34114 9.58121 6.24 9.82539 6.24 10.08V17.76C6.24 18.0146 6.34114 18.2588 6.52118 18.4388C6.70121 18.6189 6.94539 18.72 7.2 18.72C7.45461 18.72 7.69879 18.6189 7.87882 18.4388C8.05886 18.2588 8.16 18.0146 8.16 17.76V10.08C8.16 9.82539 8.05886 9.58121 7.87882 9.40118C7.69879 9.22114 7.45461 9.12 7.2 9.12ZM14.4 9.12C13.5358 9.11995 12.6914 9.37912 11.976 9.864C11.9235 9.63365 11.7879 9.43074 11.5952 9.29411C11.4024 9.15748 11.1661 9.09673 10.9313 9.12347C10.6966 9.15021 10.48 9.26258 10.3229 9.43906C10.1658 9.61554 10.0793 9.84374 10.08 10.08V17.76C10.08 18.0146 10.1811 18.2588 10.3612 18.4388C10.5412 18.6189 10.7854 18.72 11.04 18.72C11.2946 18.72 11.5388 18.6189 11.7188 18.4388C11.8989 18.2588 12 18.0146 12 17.76V13.44C12 12.8035 12.2529 12.193 12.7029 11.7429C13.153 11.2929 13.7635 11.04 14.4 11.04C15.0365 11.04 15.647 11.2929 16.0971 11.7429C16.5471 12.193 16.8 12.8035 16.8 13.44V17.76C16.8 18.0146 16.9011 18.2588 17.0812 18.4388C17.2612 18.6189 17.5054 18.72 17.76 18.72C18.0146 18.72 18.2588 18.6189 18.4388 18.4388C18.6189 18.2588 18.72 18.0146 18.72 17.76V13.44C18.72 12.2943 18.2649 11.1955 17.4547 10.3853C16.6445 9.57514 15.5457 9.12 14.4 9.12Z" fill="white"/>
</svg>
