<svg width="24" height="24" viewBox="0 0 24 24" fill="none" xmlns="http://www.w3.org/2000/svg">
<g clip-path="url(#clip0_345_176)">
<path d="M18.6667 5H9.33338C8.97976 5 8 5 8 5C8 5 8.00005 6.04969 8.00005 6.42857V9.5H9.33338V6.42857H18.6667V13.5714H16V15H18.6667C19.0203 15 20 15 20 15C20 15 20 14 20 13.5714V6.42857C20 6.04969 20 5 20 5C20 5 19.0203 5 18.6667 5Z" fill="#6272A4"/>
<path d="M14.6667 9.33331H5.33333C4.97971 9.33331 4 9.33331 4 9.33331C4 9.33331 4 10.313 4 10.6666V17.3333C4 17.6869 4 18.6666 4 18.6666C4 18.6666 4.97971 18.6666 5.33333 18.6666H14.6667C15.0203 18.6666 16 18.6666 16 18.6666C16 18.6666 16 17.6869 16 17.3333V10.6666C16 10.313 16 9.33331 16 9.33331C16 9.33331 15.0203 9.33331 14.6667 9.33331ZM5.33333 17.3333V10.6666H14.6667V17.3333H5.33333Z" fill="#6272A4"/>
</g>
<defs>
<clipPath id="clip0_345_176">
<rect width="24" height="24" fill="white"/>
</clipPath>
</defs>
</svg>
