<svg width="24" height="24" viewBox="0 0 24 24" fill="none" xmlns="http://www.w3.org/2000/svg">
<path d="M21.7575 3.77251L17.433 1.69051C17.1888 1.57275 16.914 1.5339 16.6467 1.57932C16.3794 1.62474 16.1329 1.75219 15.9413 1.94401L1.78502 14.85C1.61326 15.0059 1.51045 15.2236 1.4992 15.4552C1.48795 15.6869 1.56918 15.9135 1.72502 16.0853C1.74377 16.1055 1.76252 16.125 1.78277 16.143L2.93852 17.193C3.08954 17.3305 3.28394 17.4107 3.48795 17.4197C3.69195 17.4288 3.89268 17.3661 4.05527 17.2425L21.1065 4.31251C21.2353 4.21478 21.3888 4.15493 21.5498 4.13972C21.7107 4.1245 21.8728 4.15452 22.0176 4.22639C22.1624 4.29825 22.2843 4.40912 22.3695 4.5465C22.4548 4.68388 22.5 4.84233 22.5 5.00401V4.95376C22.5 4.70693 22.4303 4.46513 22.299 4.25615C22.1676 4.04718 21.9799 3.87954 21.7575 3.77251Z" fill="#0065A9"/>
<path d="M21.7575 20.2275L17.433 22.3102C17.1887 22.4277 16.914 22.4663 16.6468 22.4209C16.3796 22.3755 16.1331 22.2483 15.9413 22.0567L1.78502 9.14999C1.61326 8.99414 1.51045 8.77644 1.4992 8.54479C1.48795 8.31313 1.56918 8.0865 1.72502 7.91474C1.74377 7.89449 1.76252 7.87499 1.78277 7.85699L2.93852 6.80699C3.0897 6.66896 3.28454 6.58839 3.48905 6.57935C3.69356 6.5703 3.89475 6.63335 4.05752 6.75749L21.1065 19.6875C21.2353 19.7852 21.3888 19.8451 21.5498 19.8603C21.7107 19.8755 21.8728 19.8455 22.0176 19.7736C22.1624 19.7017 22.2843 19.5909 22.3695 19.4535C22.4548 19.3161 22.5 19.1577 22.5 18.996V19.05C22.4992 19.2962 22.4292 19.5371 22.2979 19.7454C22.1665 19.9536 21.9793 20.1207 21.7575 20.2275Z" fill="#007ACC"/>
<path d="M17.433 22.3103C17.1887 22.4277 16.914 22.4664 16.6468 22.421C16.3795 22.3755 16.133 22.2483 15.9412 22.0568C16.0489 22.1631 16.1856 22.2352 16.3341 22.2642C16.4827 22.2931 16.6364 22.2776 16.7762 22.2195C16.9159 22.1615 17.0354 22.0635 17.1197 21.9378C17.204 21.8121 17.2493 21.6643 17.25 21.513V2.48702C17.2501 2.33498 17.2051 2.18633 17.1207 2.0599C17.0363 1.93346 16.9162 1.83492 16.7757 1.77678C16.6353 1.71863 16.4807 1.70348 16.3316 1.73325C16.1825 1.76302 16.0456 1.83638 15.9382 1.94402C16.1299 1.75227 16.3764 1.62481 16.6436 1.57926C16.9109 1.53372 17.1856 1.57233 17.43 1.68977L21.7537 3.76877C21.9768 3.87527 22.1653 4.04268 22.2973 4.25169C22.4294 4.4607 22.4996 4.70279 22.5 4.95002V19.05C22.5 19.2971 22.4303 19.5391 22.2988 19.7482C22.1673 19.9573 21.9794 20.125 21.7567 20.232L17.433 22.3103Z" fill="#1F9CF0"/>
</svg>
