<svg width="24" height="24" viewBox="0 0 24 24" fill="none" xmlns="http://www.w3.org/2000/svg">
<path d="M6.59995 3.59998C6.16017 3.59998 5.29 3.59998 4.59959 3.59998C4.04731 3.59998 3.59995 4.04743 3.59995 4.59971C3.59995 5.28352 3.59995 6.11238 3.59995 6.59998V17.4C3.59995 17.8316 3.59996 18.8186 3.59997 19.555C3.59998 20.0899 3.90924 20.3897 4.44422 20.3914C5.1807 20.3937 6.1682 20.4 6.59995 20.4H17.4C17.8397 20.4 18.7099 20.4 19.4003 20.4C19.9526 20.4 20.4 19.9526 20.4 19.4003C20.4 18.7099 20.4 17.8398 20.4 17.4V6.59998C20.4 6.0803 20.4 5.30096 20.4 4.59993C20.4 4.04765 19.9525 3.59998 19.4002 3.59998C18.7164 3.59998 17.8875 3.59998 17.4 3.59998H6.59995ZM8.39995 4.79998H17.4C17.8773 4.79998 18.2 4.79998 19.2 4.79998C19.2 6.24925 19.2 6.38831 19.2 6.59998V17.4C19.2 18.1859 19.2 19.2 19.2 19.2C19.2 19.2 17.8773 19.2 17.4 19.2H8.39995V4.79998Z" fill="#6272A4"/>
</svg>
