<svg width="42" height="42" viewBox="0 0 42 42" fill="none" xmlns="http://www.w3.org/2000/svg">
<g clip-path="url(#clip0_360_151)">
<path d="M25.0403 42H16.9597C16.4209 42 15.9541 41.825 15.559 41.475C15.1639 41.125 14.9305 40.6875 14.8587 40.1625L14.2122 35.28C13.7453 35.105 13.305 34.895 12.8913 34.65C12.4776 34.405 12.0739 34.1425 11.6803 33.8625L6.99347 35.7525C6.49067 35.9275 5.98787 35.945 5.48507 35.805C4.98228 35.665 4.58722 35.3675 4.29991 34.9125L0.313433 28.14C0.0261194 27.685 -0.063666 27.195 0.0440765 26.67C0.151819 26.145 0.421175 25.725 0.852146 25.41L4.89249 22.4175C4.85658 22.1725 4.83862 21.9359 4.83862 21.7077V20.2902C4.83862 20.0634 4.85658 19.8275 4.89249 19.5825L0.852146 16.59C0.421175 16.275 0.151819 15.855 0.0440765 15.33C-0.063666 14.805 0.0261194 14.315 0.313433 13.86L4.29991 7.0875C4.55131 6.5975 4.93702 6.2909 5.45706 6.1677C5.9771 6.0445 6.48923 6.0711 6.99347 6.2475L11.6803 8.1375C12.0753 7.8575 12.4883 7.595 12.9193 7.35C13.3503 7.105 13.7812 6.895 14.2122 6.72L14.8587 1.8375C14.9305 1.3125 15.1639 0.875 15.559 0.525C15.9541 0.175 16.4209 0 16.9597 0H25.0403C25.5791 0 26.0459 0.175 26.441 0.525C26.8361 0.875 27.0695 1.3125 27.1413 1.8375L27.7878 6.72C28.2547 6.895 28.695 7.105 29.1087 7.35C29.5224 7.595 29.9261 7.8575 30.3197 8.1375L35.0065 6.2475C35.5093 6.0725 36.0121 6.055 36.5149 6.195C37.0177 6.335 37.4128 6.6325 37.7001 7.0875L41.6866 13.86C41.9739 14.315 42.0637 14.805 41.9559 15.33C41.8482 15.855 41.5788 16.275 41.1479 16.59L37.1075 19.5825C37.1434 19.8275 37.1614 20.0641 37.1614 20.2923V21.7077C37.1614 21.9359 37.1255 22.1725 37.0536 22.4175L41.094 25.41C41.525 25.725 41.7943 26.145 41.9021 26.67C42.0098 27.195 41.92 27.685 41.6327 28.14L37.6462 34.86C37.3589 35.315 36.9545 35.6216 36.433 35.7798C35.9116 35.938 35.4002 35.9289 34.8988 35.7525L30.3197 33.8625C29.9247 34.1425 29.5117 34.405 29.0807 34.65C28.6497 34.895 28.2188 35.105 27.7878 35.28L27.1413 40.1625C27.0695 40.6875 26.8361 41.125 26.441 41.475C26.0459 41.825 25.5791 42 25.0403 42ZM21.1077 28.35C23.1908 28.35 24.9685 27.6325 26.441 26.1975C27.9135 24.7625 28.6497 23.03 28.6497 21C28.6497 18.97 27.9135 17.2375 26.441 15.8025C24.9685 14.3675 23.1908 13.65 21.1077 13.65C18.9888 13.65 17.2017 14.3675 15.7465 15.8025C14.2912 17.2375 13.5643 18.97 13.5658 21C13.5658 23.03 14.2927 24.7625 15.7465 26.1975C17.2003 27.6325 18.9874 28.35 21.1077 28.35ZM21.1077 24.15C20.2099 24.15 19.4464 23.8441 18.8171 23.2323C18.1879 22.6205 17.874 21.8764 17.8755 21C17.8755 20.125 18.1901 19.3809 18.8193 18.7677C19.4485 18.1545 20.2113 17.8486 21.1077 17.85C22.0056 17.85 22.7691 18.1566 23.3983 18.7698C24.0276 19.383 24.3415 20.1264 24.34 21C24.34 21.875 24.0254 22.6191 23.3962 23.2323C22.767 23.8455 22.0042 24.1514 21.1077 24.15ZM18.8451 37.8H23.101L23.8552 32.235C24.9685 31.955 26.0014 31.5434 26.9539 31.0002C27.9063 30.457 28.7769 29.8011 29.5655 29.0325L34.8988 31.185L36.9998 27.615L32.3668 24.2025C32.5464 23.7125 32.6721 23.1959 32.7439 22.6527C32.8158 22.1095 32.8517 21.5586 32.8517 21C32.8517 20.44 32.8158 19.8884 32.7439 19.3452C32.6721 18.802 32.5464 18.2861 32.3668 17.7975L36.9998 14.385L34.8988 10.815L29.5655 13.02C28.7754 12.215 27.9049 11.5416 26.9539 10.9998C26.0028 10.458 24.97 10.0464 23.8552 9.765L23.1549 4.2H18.899L18.1448 9.765C17.0315 10.045 15.9993 10.4566 15.0483 10.9998C14.0973 11.543 13.226 12.1989 12.4345 12.9675L7.10121 10.815L5.00023 14.385L9.63316 17.745C9.45359 18.27 9.32789 18.795 9.25606 19.32C9.18423 19.845 9.14832 20.405 9.14832 21C9.14832 21.56 9.18423 22.1025 9.25606 22.6275C9.32789 23.1525 9.45359 23.6775 9.63316 24.2025L5.00023 27.615L7.10121 31.185L12.4345 28.98C13.2246 29.785 14.0959 30.4591 15.0483 31.0023C16.0007 31.5455 17.0329 31.9564 18.1448 32.235L18.8451 37.8Z" fill="#6272A4"/>
</g>
<defs>
<clipPath id="clip0_360_151">
<rect width="42" height="42" fill="white"/>
</clipPath>
</defs>
</svg>
