<svg width="42" height="42" viewBox="0 0 42 42" fill="none" xmlns="http://www.w3.org/2000/svg">
<path d="M19.1441 23.6408L16.8341 25.9508C16.4833 24.5364 15.6689 23.2804 14.5208 22.3831C13.3727 21.4857 11.9572 20.9988 10.5 21C9.04331 21.0006 7.62864 21.4882 6.48092 22.3853C5.33321 23.2823 4.51834 24.5373 4.16587 25.9508L1.85588 23.6408L0 25.494L3.01087 28.5023L2.625 28.8855V31.5105H0V34.1329H2.625V34.272C2.75887 35.1278 3.00038 35.9599 3.34162 36.7553L0 40.1468L1.85588 42L4.74338 39.1151C5.43049 39.9911 6.30302 40.704 7.29833 41.2028C8.29363 41.7016 9.38702 41.9738 10.5 42C11.6129 41.9735 12.7062 41.7011 13.7014 41.2023C14.6967 40.7036 15.5693 39.9908 16.2566 39.1151L19.1441 42L21 40.1468L17.6584 36.7553C18.0049 35.9442 18.2458 35.092 18.375 34.2195V34.0436H21V31.5105H18.375V28.8855L17.9891 28.5023L21 25.494L19.1441 23.6408ZM10.5 23.6408C11.5438 23.6408 12.545 24.0552 13.2833 24.7931C14.0217 25.5309 14.4368 26.5318 14.4375 27.5756H6.5625C6.56215 27.0586 6.66378 26.5465 6.86157 26.0688C7.05936 25.5911 7.34942 25.157 7.71516 24.7916C8.08089 24.4261 8.51511 24.1363 8.99297 23.9388C9.47083 23.7414 9.98295 23.6401 10.5 23.6408ZM15.75 34.1329C15.6215 35.481 15.0269 36.7421 14.0686 37.699C13.1103 38.6559 11.8483 39.2486 10.5 39.375C9.15182 39.247 7.89032 38.6534 6.93225 37.6963C5.97418 36.7392 5.37936 35.4783 5.25 34.1303V30.1954H15.75V34.1303V34.1329Z" fill="#6272A4"/>
<path fill-rule="evenodd" clip-rule="evenodd" d="M13.125 6.32625L15.1725 5.25L38.7975 21V23.1787L23.625 33.2929V30.1429L35.7 22.1025L15.75 8.79375V18.375H13.125V6.32625Z" fill="#6272A4"/>
</svg>
