<svg width="42" height="42" viewBox="0 0 42 42" fill="none" xmlns="http://www.w3.org/2000/svg">
<g clip-path="url(#clip0_360_146)">
<path fill-rule="evenodd" clip-rule="evenodd" d="M23.625 2.625L26.25 0H39.375L42 2.625V15.75L39.375 18.375H26.25L23.625 15.75V2.625ZM26.25 2.625V15.75H39.375V2.625H26.25ZM0 26.25V10.5L2.625 7.875H15.75L18.375 10.5V23.625H31.5L34.125 26.25V39.375L31.5 42H2.625L0 39.375V26.25ZM15.75 23.625V10.5H2.625V23.625H15.75ZM15.75 26.25H2.625V39.375H15.75V26.25ZM18.375 39.375H31.5V26.25H18.375V39.375Z" fill="#6272A4"/>
</g>
<defs>
<clipPath id="clip0_360_146">
<rect width="42" height="42" fill="white"/>
</clipPath>
</defs>
</svg>
