<svg width="42" height="42" viewBox="0 0 42 42" fill="none" xmlns="http://www.w3.org/2000/svg">
<path d="M37.2159 10.4147C37.1759 10.2222 37.0827 10.0449 36.9469 9.90281L28.9734 1.92938C28.7874 1.74709 28.5382 1.64365 28.2778 1.64062H16.6228C15.7526 1.64062 14.918 1.98633 14.3026 2.60168C13.6873 3.21703 13.3416 4.05163 13.3416 4.92188V9.1875H8.01938C7.14914 9.1875 6.31454 9.5332 5.69918 10.1486C5.08383 10.7639 4.73813 11.5985 4.73813 12.4688V37.0978C4.73813 37.9681 5.08383 38.8027 5.69918 39.418C6.31454 40.0334 7.14914 40.3791 8.01938 40.3791H25.3772C26.2474 40.3791 27.082 40.0334 27.6974 39.418C28.3127 38.8027 28.6584 37.9681 28.6584 37.0978V32.8125H34.0003C34.8706 32.8125 35.7052 32.4668 36.3205 31.8514C36.9359 31.2361 37.2816 30.4015 37.2816 29.5312V10.5984C37.2666 10.5349 37.2446 10.4733 37.2159 10.4147ZM29.2622 5.00062L33.8559 9.59438H29.2622V5.00062ZM26.6372 37.0978C26.6372 37.4459 26.4989 37.7797 26.2528 38.0259C26.0066 38.272 25.6728 38.4103 25.3247 38.4103H8.01938C7.67128 38.4103 7.33744 38.272 7.0913 38.0259C6.84516 37.7797 6.70688 37.4459 6.70688 37.0978V12.4688C6.70688 12.1207 6.84516 11.7868 7.0913 11.5407C7.33744 11.2945 7.67128 11.1562 8.01938 11.1562H13.3613V29.5312C13.3613 30.4015 13.707 31.2361 14.3223 31.8514C14.9377 32.4668 15.7723 32.8125 16.6425 32.8125H26.67L26.6372 37.0978ZM33.9806 30.8438H16.6228C16.2747 30.8438 15.9409 30.7055 15.6947 30.4593C15.4486 30.2132 15.3103 29.8793 15.3103 29.5312V4.90219C15.3103 4.55409 15.4486 4.22025 15.6947 3.97411C15.9409 3.72797 16.2747 3.58969 16.6228 3.58969H27.2934V10.5984C27.2934 10.8595 27.3972 11.1099 27.5818 11.2945C27.7664 11.4791 28.0167 11.5828 28.2778 11.5828H35.2669V29.5312C35.2669 29.8748 35.1323 30.2048 34.8918 30.4502C34.6513 30.6956 34.3242 30.8369 33.9806 30.8438Z" fill="#6272A4"/>
</svg>
