<svg width="42" height="42" viewBox="0 0 42 42" fill="none" xmlns="http://www.w3.org/2000/svg">
<path d="M13.125 11.8125C15.2996 11.8125 17.0625 10.0496 17.0625 7.875C17.0625 5.70038 15.2996 3.9375 13.125 3.9375C10.9504 3.9375 9.1875 5.70038 9.1875 7.875C9.1875 10.0496 10.9504 11.8125 13.125 11.8125Z" stroke="#6272A4" stroke-width="2.625" stroke-linecap="round" stroke-linejoin="round"/>
<path d="M13.125 38.0625C15.2996 38.0625 17.0625 36.2996 17.0625 34.125C17.0625 31.9504 15.2996 30.1875 13.125 30.1875C10.9504 30.1875 9.1875 31.9504 9.1875 34.125C9.1875 36.2996 10.9504 38.0625 13.125 38.0625Z" stroke="#6272A4" stroke-width="2.625" stroke-linecap="round" stroke-linejoin="round"/>
<path d="M13.125 30.1875V11.8125" stroke="#6272A4" stroke-width="2.625" stroke-linecap="round" stroke-linejoin="round"/>
<path d="M28.875 17.0625C31.0496 17.0625 32.8125 15.2996 32.8125 13.125C32.8125 10.9504 31.0496 9.1875 28.875 9.1875C26.7004 9.1875 24.9375 10.9504 24.9375 13.125C24.9375 15.2996 26.7004 17.0625 28.875 17.0625Z" stroke="#6272A4" stroke-width="2.625" stroke-linecap="round" stroke-linejoin="round"/>
<path d="M28.875 17.0625C28.875 27.5625 13.125 21 13.125 30.1875" stroke="#6272A4" stroke-width="2.625" stroke-linecap="round" stroke-linejoin="round"/>
</svg>
