<svg width="42" height="42" viewBox="0 0 42 42" fill="none" xmlns="http://www.w3.org/2000/svg">
<g clip-path="url(#clip0_360_132)">
<path fill-rule="evenodd" clip-rule="evenodd" d="M33.25 17.5C33.25 15.1794 32.3281 12.9538 30.6872 11.3128C29.0462 9.67187 26.8206 8.75 24.5 8.75C22.1793 8.75 19.9537 9.67187 18.3128 11.3128C16.6719 12.9538 15.75 15.1794 15.75 17.5C15.75 19.8206 16.6719 22.0462 18.3128 23.6872C19.9537 25.3281 22.1793 26.25 24.5 26.25C26.8206 26.25 29.0462 25.3281 30.6872 23.6872C32.3281 22.0462 33.25 19.8206 33.25 17.5ZM24.5 5.25C26.4403 5.25 28.3528 5.71091 30.0801 6.59476C31.8074 7.4786 33.3001 8.76012 34.4351 10.3338C35.5702 11.9074 36.3152 13.7282 36.6089 15.6461C36.9025 17.5641 36.7364 19.5243 36.1241 21.3655C35.5118 23.2067 34.471 24.876 33.0872 26.2362C31.7035 27.5963 30.0165 28.6084 28.1651 29.1889C26.3136 29.7694 24.3508 29.9018 22.4382 29.5752C20.5256 29.2487 18.7179 28.4725 17.164 27.3105L8.23899 36.2373C7.91085 36.5656 7.46571 36.7502 7.00148 36.7504C6.53726 36.7505 6.09199 36.5663 5.76362 36.2381C5.43525 35.91 5.25068 35.4648 5.25051 35.0006C5.25035 34.5364 5.4346 34.0911 5.76274 33.7627L14.6877 24.8377C13.3257 23.0169 12.4973 20.8529 12.2953 18.5879C12.0934 16.323 12.5258 14.0465 13.5443 12.0134C14.5628 9.98031 16.127 8.27081 18.0619 7.0763C19.9968 5.8818 22.2261 5.24943 24.5 5.25Z" fill="#6272A4"/>
</g>
<defs>
<clipPath id="clip0_360_132">
<rect width="42" height="42" fill="white" transform="matrix(-1 0 0 1 42 0)"/>
</clipPath>
</defs>
</svg>
