<svg width="42" height="42" viewBox="0 0 42 42" fill="none" xmlns="http://www.w3.org/2000/svg">
<g clip-path="url(#clip0_360_149)">
<path d="M42 20.979C42 9.3975 32.592 0 21 0C9.408 0 0 9.3975 0 20.979C0 27.3577 2.898 33.1065 7.434 36.9652C7.476 37.0072 7.518 37.0073 7.518 37.0493C7.896 37.3433 8.274 37.6372 8.694 37.9312C8.904 38.0573 9.072 38.2226 9.282 38.3906C12.7524 40.7436 16.8491 42.0009 21.042 42C25.2349 42.0009 29.3316 40.7436 32.802 38.3906C33.012 38.2646 33.18 38.0993 33.39 37.9706C33.768 37.6792 34.188 37.3853 34.566 37.0913C34.608 37.0493 34.65 37.0492 34.65 37.0072C39.102 33.1039 42 27.3577 42 20.979ZM21 39.3566C17.052 39.3566 13.44 38.0966 10.458 35.9992C10.5 35.6632 10.584 35.3299 10.668 34.9939C10.9183 34.0833 11.2853 33.2089 11.76 32.3925C12.222 31.5945 12.768 30.8805 13.44 30.2505C14.07 29.6205 14.826 29.0351 15.582 28.5731C16.38 28.1111 17.22 27.7751 18.144 27.5231C19.0752 27.2721 20.0356 27.1459 21 27.1478C23.863 27.1275 26.6207 28.2257 28.686 30.2085C29.652 31.1745 30.408 32.3085 30.954 33.6079C31.248 34.3639 31.458 35.1619 31.584 35.9992C28.4843 38.1784 24.789 39.3506 21 39.3566ZM14.574 19.9316C14.2039 19.0843 14.0178 18.1682 14.028 17.2436C14.028 16.3222 14.196 15.3982 14.574 14.5583C14.952 13.7183 15.456 12.9649 16.086 12.3349C16.716 11.7049 17.472 11.2035 18.312 10.8255C19.152 10.4475 20.076 10.2795 21 10.2795C21.966 10.2795 22.848 10.4475 23.688 10.8255C24.528 11.2035 25.284 11.7075 25.914 12.3349C26.544 12.9649 27.048 13.7209 27.426 14.5583C27.804 15.3982 27.972 16.3222 27.972 17.2436C27.972 18.2096 27.804 19.0916 27.426 19.929C27.0612 20.7566 26.5489 21.5109 25.914 22.155C25.2696 22.7889 24.5154 23.3004 23.688 23.6644C21.9524 24.3776 20.0056 24.3776 18.27 23.6644C17.4426 23.3004 16.6884 22.7889 16.044 22.155C15.4083 21.5202 14.9081 20.7655 14.574 19.9316ZM34.062 33.8599C34.062 33.7759 34.02 33.7339 34.02 33.6499C33.6069 32.3358 32.9981 31.0916 32.214 29.9591C31.4292 28.8182 30.4647 27.8121 29.358 26.9797C28.5128 26.3439 27.5967 25.8083 26.628 25.3838C27.0687 25.093 27.477 24.756 27.846 24.3784C28.4722 23.7602 29.0221 23.0693 29.484 22.3204C30.4142 20.7921 30.8946 19.0325 30.87 17.2436C30.883 15.9194 30.6257 14.6063 30.114 13.3849C29.6087 12.2079 28.8815 11.1393 27.972 10.2375C27.0639 9.34508 25.9951 8.63255 24.822 8.1375C23.5985 7.62666 22.2838 7.37033 20.958 7.38412C19.632 7.37116 18.3173 7.62838 17.094 8.14013C15.9108 8.63412 14.8394 9.36176 13.944 10.2795C13.0516 11.1867 12.3391 12.2546 11.844 13.4269C11.3323 14.6483 11.075 15.9614 11.088 17.2856C11.088 18.2096 11.214 19.0916 11.466 19.929C11.718 20.811 12.054 21.609 12.516 22.3624C12.936 23.1184 13.524 23.7904 14.154 24.4204C14.532 24.7984 14.952 25.1318 15.414 25.4257C14.4423 25.8617 13.5259 26.4115 12.684 27.0638C11.592 27.9038 10.626 28.9091 9.828 30.0011C9.03593 31.1289 8.42646 32.3744 8.022 33.6919C7.98 33.7759 7.98 33.8599 7.98 33.9019C4.662 30.5445 2.604 26.0138 2.604 20.979C2.604 10.8675 10.878 2.60138 21 2.60138C31.122 2.60138 39.396 10.8675 39.396 20.979C39.3905 25.8089 37.4727 30.4401 34.062 33.8599Z" fill="#6272A4"/>
</g>
<defs>
<clipPath id="clip0_360_149">
<rect width="42" height="42" fill="white"/>
</clipPath>
</defs>
</svg>
