<svg width="206" height="931" viewBox="0 0 206 931" fill="none" xmlns="http://www.w3.org/2000/svg">
    <path opacity="0.04"
        d="M74 904.898V930.679H1.27273V904.685C1.27273 897.369 2.72869 891.072 5.64062 885.793C8.52888 880.513 12.6837 876.453 18.1051 873.612C23.5265 870.748 30.0133 869.315 37.5653 869.315C45.1411 869.315 51.6515 870.748 57.0966 873.612C62.5417 876.453 66.7202 880.537 69.6321 885.864C72.544 891.167 74 897.511 74 904.898ZM60.8253 915.303V905.537C60.8253 900.991 60.0204 897.168 58.4105 894.067C56.777 890.942 54.2557 888.598 50.8466 887.036C47.4138 885.449 42.9867 884.656 37.5653 884.656C32.1913 884.656 27.7997 885.449 24.3906 887.036C20.9815 888.598 18.4721 890.93 16.8622 894.031C15.2524 897.133 14.4474 900.956 14.4474 905.501V915.303H60.8253ZM74 853.425H1.27273L1.27273 804.419H13.9503V838.049H31.2798V806.941H43.9574V838.049H61.3224V804.277H74V853.425ZM22.1889 748.241C19.3243 748.526 17.099 749.745 15.5128 751.899C13.9266 754.054 13.1335 756.977 13.1335 760.67C13.1335 763.18 13.4886 765.299 14.1989 767.027C14.8854 768.755 15.8442 770.081 17.0753 771.004C18.3063 771.904 19.7031 772.354 21.2656 772.354C22.5677 772.401 23.7041 772.129 24.6747 771.537C25.6454 770.921 26.4858 770.081 27.196 769.016C27.8826 767.95 28.4863 766.719 29.0071 765.322C29.5043 763.926 29.9304 762.434 30.2855 760.848L31.848 754.314C32.5582 751.142 33.5052 748.23 34.6889 745.578C35.8726 742.927 37.3286 740.63 39.0568 738.689C40.785 736.748 42.821 735.244 45.1648 734.179C47.5085 733.09 50.1955 732.534 53.2259 732.51C57.6766 732.534 61.5355 733.67 64.8026 735.919C68.0459 738.144 70.5672 741.364 72.3665 745.578C74.142 749.768 75.0298 754.823 75.0298 760.741C75.0298 766.613 74.1302 771.726 72.331 776.082C70.5317 780.415 67.8684 783.8 64.3409 786.239C60.7898 788.653 56.3982 789.92 51.1662 790.038V775.159C53.6046 774.993 55.6406 774.295 57.2741 773.064C58.884 771.809 60.1032 770.14 60.9318 768.057C61.7367 765.95 62.1392 763.571 62.1392 760.919C62.1392 758.315 61.7604 756.054 61.0028 754.136C60.2453 752.195 59.1918 750.692 57.8423 749.626C56.4929 748.561 54.9422 748.028 53.1903 748.028C51.5568 748.028 50.1837 748.514 49.071 749.484C47.9583 750.431 47.0114 751.828 46.2301 753.675C45.4489 755.498 44.7386 757.735 44.0994 760.386L42.1108 768.305C40.6193 774.437 38.2874 779.278 35.1151 782.83C31.9427 786.381 27.6695 788.144 22.2955 788.121C17.892 788.144 14.045 786.973 10.7543 784.605C7.46354 782.214 4.89489 778.935 3.04829 774.768C1.2017 770.602 0.278406 765.867 0.278406 760.564C0.278406 755.166 1.2017 750.455 3.04829 746.43C4.89489 742.382 7.46354 739.233 10.7543 736.984C14.045 734.735 17.8565 733.575 22.1889 733.504V748.241ZM74 717.667H1.27273L1.27273 668.662H13.9503V702.291H31.2798V671.183H43.9574V702.291H61.3224V668.52H74V717.667ZM1.27273 591.106H74L74 604.387L28.2259 636.028V636.56H74V651.937H1.27273V638.442L47.0114 607.05V606.411H1.27273V591.106ZM1.27273 560.762L56.5284 543.184V542.51L1.27273 524.896L1.27273 507.85L74 532.922V552.737L1.27273 577.843V560.762ZM37.6364 431.866C45.5672 431.866 52.3144 433.369 57.8778 436.376C63.4413 439.359 67.6908 443.431 70.6264 448.592C73.5384 453.729 74.9943 459.506 74.9943 465.922C74.9943 472.385 73.5265 478.185 70.5909 483.322C67.6553 488.459 63.4058 492.52 57.8423 495.502C52.2789 498.485 45.5436 499.977 37.6364 499.977C29.7055 499.977 22.9583 498.485 17.3949 495.502C11.8314 492.52 7.59375 488.459 4.68182 483.322C1.74621 478.185 0.278406 472.385 0.278406 465.922C0.278406 459.506 1.74621 453.729 4.68182 448.592C7.59375 443.431 11.8314 439.359 17.3949 436.376C22.9583 433.369 29.7055 431.866 37.6364 431.866ZM37.6364 447.456C32.4991 447.456 28.1667 448.225 24.6392 449.764C21.1117 451.279 18.4366 453.422 16.6136 456.191C14.7907 458.961 13.8793 462.205 13.8793 465.922C13.8793 469.638 14.7907 472.882 16.6136 475.652C18.4366 478.422 21.1117 480.576 24.6392 482.115C28.1667 483.63 32.4991 484.387 37.6364 484.387C42.7737 484.387 47.1061 483.63 50.6335 482.115C54.161 480.576 56.8362 478.422 58.6591 475.652C60.482 472.882 61.3935 469.638 61.3935 465.922C61.3935 462.205 60.482 458.961 58.6591 456.191C56.8362 453.422 54.161 451.279 50.6335 449.764C47.1061 448.225 42.7737 447.456 37.6364 447.456ZM74 415.976H1.27273V400.599H61.3224V369.42H74V415.976ZM1.27273 349.411L56.5284 331.833V331.158L1.27273 313.544V296.499L74 321.57V341.385L1.27273 366.492V349.411ZM74 283.245H1.27273V234.24H13.9503V267.869H31.2798V236.761H43.9574V267.869H61.3224V234.098H74V283.245ZM74 191.734V217.515H1.27273V191.521C1.27273 184.205 2.72869 177.908 5.64062 172.629C8.52888 167.349 12.6837 163.289 18.1051 160.448C23.5265 157.584 30.0133 156.151 37.5653 156.151C45.1411 156.151 51.6515 157.584 57.0966 160.448C62.5417 163.289 66.7202 167.373 69.6321 172.7C72.544 178.003 74 184.347 74 191.734ZM60.8253 202.138V192.373C60.8253 187.827 60.0204 184.004 58.4105 180.903C56.777 177.778 54.2557 175.434 50.8466 173.871C47.4138 172.285 42.9867 171.492 37.5653 171.492C32.1913 171.492 27.7997 172.285 24.3906 173.871C20.9815 175.434 18.4721 177.766 16.8622 180.867C15.2524 183.969 14.4474 187.792 14.4474 192.337V202.138H60.8253ZM37.6364 73.4286C45.5672 73.4286 52.3144 74.9319 57.8778 77.9386C63.4413 80.9215 67.6908 84.9935 70.6264 90.1545C73.5384 95.2918 74.9943 101.068 74.9943 107.484C74.9943 113.947 73.5265 119.747 70.5909 124.885C67.6553 130.022 63.4058 134.082 57.8423 137.065C52.2789 140.048 45.5436 141.539 37.6364 141.539C29.7055 141.539 22.9583 140.048 17.3949 137.065C11.8314 134.082 7.59375 130.022 4.68182 124.885C1.74621 119.747 0.278406 113.947 0.278406 107.484C0.278406 101.068 1.74621 95.2918 4.68182 90.1545C7.59375 84.9935 11.8314 80.9215 17.3949 77.9386C22.9583 74.9319 29.7055 73.4286 37.6364 73.4286ZM37.6364 89.0181C32.4991 89.0181 28.1667 89.7875 24.6392 91.3263C21.1117 92.8415 18.4366 94.984 16.6136 97.7539C14.7907 100.524 13.8793 103.767 13.8793 107.484C13.8793 111.201 14.7907 114.444 16.6136 117.214C18.4366 119.984 21.1117 122.138 24.6392 123.677C28.1667 125.192 32.4991 125.95 37.6364 125.95C42.7737 125.95 47.1061 125.192 50.6335 123.677C54.161 122.138 56.8362 119.984 58.6591 117.214C60.482 114.444 61.3935 111.201 61.3935 107.484C61.3935 103.767 60.482 100.524 58.6591 97.7539C56.8362 94.984 54.161 92.8415 50.6335 91.3263C47.1061 89.7875 42.7737 89.0181 37.6364 89.0181ZM74 57.5384H1.27273V28.8452C1.27273 23.3527 2.25521 18.6652 4.22017 14.7827C6.16146 10.8764 8.91951 7.9053 12.4943 5.86932C16.0455 3.80966 20.224 2.77983 25.0298 2.77983C29.8594 2.77983 34.0142 3.82149 37.4943 5.90483C40.9508 7.98816 43.6023 11.0066 45.4489 14.9602C47.2955 18.8902 48.2187 23.6487 48.2187 29.2358V48.4474H35.8608V31.7216C35.8608 28.786 35.4583 26.3475 34.6534 24.4062C33.8485 22.465 32.6411 21.0208 31.0312 20.0739C29.4214 19.1032 27.4209 18.6179 25.0298 18.6179C22.6151 18.6179 20.5791 19.1032 18.9219 20.0739C17.2647 21.0208 16.0099 22.4768 15.1577 24.4418C14.2817 26.383 13.8437 28.8333 13.8437 31.7926V42.1619H74V57.5384ZM40.9034 18.2628L74 0.1875V17.1619L40.9034 34.8466V18.2628ZM205 930.679H132.273V882.526H144.95V915.303H162.28V885.722H174.957V915.303H205V930.679ZM205 867.683H132.273V838.99C132.273 833.497 133.255 828.81 135.22 824.927C137.161 821.021 139.92 818.05 143.494 816.014C147.045 813.954 151.224 812.924 156.03 812.924C160.859 812.924 165.014 813.966 168.494 816.049C171.951 818.133 174.602 821.151 176.449 825.105C178.295 829.035 179.219 833.793 179.219 839.38V858.592H166.861V841.866C166.861 838.931 166.458 836.492 165.653 834.551C164.848 832.609 163.641 831.165 162.031 830.218C160.421 829.248 158.421 828.762 156.03 828.762C153.615 828.762 151.579 829.248 149.922 830.218C148.265 831.165 147.01 832.621 146.158 834.586C145.282 836.528 144.844 838.978 144.844 841.937V852.306H205V867.683ZM171.903 828.407L205 810.332V827.306L171.903 844.991V828.407ZM168.636 730.725C176.567 730.725 183.314 732.229 188.878 735.235C194.441 738.218 198.691 742.29 201.626 747.451C204.538 752.589 205.994 758.365 205.994 764.781C205.994 771.244 204.527 777.044 201.591 782.181C198.655 787.319 194.406 791.379 188.842 794.362C183.279 797.345 176.544 798.836 168.636 798.836C160.705 798.836 153.958 797.345 148.395 794.362C142.831 791.379 138.594 787.319 135.682 782.181C132.746 777.044 131.278 771.244 131.278 764.781C131.278 758.365 132.746 752.589 135.682 747.451C138.594 742.29 142.831 738.218 148.395 735.235C153.958 732.229 160.705 730.725 168.636 730.725ZM168.636 746.315C163.499 746.315 159.167 747.084 155.639 748.623C152.112 750.138 149.437 752.281 147.614 755.051C145.791 757.821 144.879 761.064 144.879 764.781C144.879 768.498 145.791 771.741 147.614 774.511C149.437 777.281 152.112 779.435 155.639 780.974C159.167 782.489 163.499 783.247 168.636 783.247C173.774 783.247 178.106 782.489 181.634 780.974C185.161 779.435 187.836 777.281 189.659 774.511C191.482 771.741 192.393 768.498 192.393 764.781C192.393 761.064 191.482 757.821 189.659 755.051C187.836 752.281 185.161 750.138 181.634 748.623C178.106 747.084 173.774 746.315 168.636 746.315ZM132.273 654.004H205V667.286L159.226 698.926V699.459H205V714.835H132.273V701.341L178.011 669.949V669.31H132.273V654.004ZM144.95 639.57H132.273V579.84H144.95V602.105H205V617.304H144.95V639.57ZM162.635 534.83H174.638V567.998H162.635V534.83ZM205 517.156H132.273V468.15H144.95V501.779H162.28V470.671H174.957V501.779H192.322V468.008H205V517.156ZM132.273 390.594H205V403.875L159.226 435.516V436.049H205V451.425H132.273V437.931L178.011 406.539V405.9H132.273V390.594ZM205 347.609V373.39H132.273V347.396C132.273 340.08 133.729 333.783 136.641 328.504C139.529 323.224 143.684 319.164 149.105 316.323C154.527 313.459 161.013 312.026 168.565 312.026C176.141 312.026 182.652 313.459 188.097 316.323C193.542 319.164 197.72 323.248 200.632 328.575C203.544 333.878 205 340.222 205 347.609ZM191.825 358.013V348.248C191.825 343.702 191.02 339.879 189.411 336.778C187.777 333.653 185.256 331.309 181.847 329.746C178.414 328.16 173.987 327.367 168.565 327.367C163.191 327.367 158.8 328.16 155.391 329.746C151.982 331.309 149.472 333.641 147.862 336.742C146.252 339.844 145.447 343.667 145.447 348.212V358.013H191.825Z"
        fill="white" />
</svg>