<svg width="30" height="30" viewBox="0 0 30 30" fill="none" xmlns="http://www.w3.org/2000/svg">
    <path d="M5.53332 25.5009L3.42676 1.875H26.5736L24.4643 25.4972L14.9861 28.125L5.53332 25.5009Z"
        fill="#E44F26" />
    <path d="M15 26.1169L22.6594 23.9934L24.4612 3.80719H15V26.1169Z" fill="#F1662A" />
    <path
        d="M15 12.5691H11.1656L10.9013 9.60188H15V6.70407H7.73438L7.80375 7.4822L8.51531 15.4669H15V12.5691ZM15 20.0944L14.9869 20.0981L11.76 19.2272L11.5538 16.9163H8.64469L9.05063 21.465L14.9869 23.1131L15 23.1094V20.0944Z"
        fill="#EBEBEB" />
    <path
        d="M14.9893 12.5691V15.4669H18.5574L18.2218 19.2253L14.9893 20.0972V23.1122L20.9302 21.465L20.9733 20.9756L21.6539 13.3472L21.7252 12.5691H14.9893ZM14.9893 6.70407V9.60188H21.9886L22.0468 8.95126L22.1789 7.4822L22.2483 6.70407H14.9893Z"
        fill="white" />
</svg>