<svg width="23" height="30" viewBox="0 0 23 30" fill="none" xmlns="http://www.w3.org/2000/svg">
<g clip-path="url(#clip0_458_92)">
<path d="M7.15915 23.1913C7.15915 23.1913 6.01482 23.8568 7.97357 24.0819C10.3466 24.3526 11.5594 24.3139 14.1745 23.8189C14.1745 23.8189 14.862 24.25 15.8221 24.6234C9.9599 27.1359 2.55459 24.4778 7.15915 23.1913ZM6.44279 19.9126C6.44279 19.9126 5.1593 20.8627 7.11953 21.0655C9.65444 21.327 11.6563 21.3484 15.1203 20.6814C15.1203 20.6814 15.5995 21.1671 16.3529 21.4327C9.26496 23.5053 1.37037 21.5962 6.44279 19.9126Z" fill="#5382A1"/>
<path d="M12.4821 14.351C13.9266 16.014 12.1026 17.5106 12.1026 17.5106C12.1026 17.5106 15.7703 15.6172 14.0859 13.2461C12.5127 11.0352 11.3062 9.93642 17.8375 6.14862C17.8375 6.14862 7.58562 8.70911 12.4821 14.351Z" fill="#E76F00"/>
<path d="M20.2359 25.6163C20.2359 25.6163 21.0828 26.3141 19.3032 26.8539C15.9195 27.879 5.21955 28.1885 2.24712 26.8947C1.17866 26.43 3.18241 25.7849 3.81267 25.6495C4.46999 25.5069 4.84568 25.5335 4.84568 25.5335C3.65738 24.6964 -2.83493 27.1772 1.54793 27.8876C13.5005 29.826 23.3363 27.0148 20.2359 25.6163ZM7.71016 16.5156C7.71016 16.5156 2.26759 17.8084 5.78288 18.2777C7.26709 18.4764 10.2259 18.4315 12.982 18.2005C15.2344 18.0107 17.4961 17.6066 17.4961 17.6066C17.4961 17.6066 16.7019 17.9468 16.1273 18.3391C10.6004 19.7927 -0.0766623 19.1165 2.99712 17.6296C5.59663 16.3731 7.71016 16.5156 7.71016 16.5156ZM17.4737 21.973C23.0922 19.0535 20.4944 16.2479 18.6812 16.6259C18.2368 16.7183 18.0387 16.7984 18.0387 16.7984C18.0387 16.7984 18.2037 16.54 18.5187 16.4282C22.1057 15.1671 24.8644 20.1476 17.3608 22.1201C17.3608 22.1202 17.4478 22.0425 17.4737 21.973Z" fill="#5382A1"/>
<path d="M14.0864 0.0321607C14.0864 0.0321607 17.198 3.14488 11.1352 7.93109C6.27359 11.7706 10.0266 13.9597 11.1332 16.4609C8.29539 13.9005 6.21273 11.6465 7.60998 9.54875C9.66065 6.46924 15.3418 4.97635 14.0864 0.0321607Z" fill="#E76F00"/>
<path d="M8.26205 29.8843C13.655 30.2295 21.9365 29.6927 22.1326 27.1409C22.1326 27.1409 21.7556 28.1084 17.6756 28.8766C13.0726 29.7427 7.39552 29.6417 4.02832 29.0865C4.02841 29.0865 4.71754 29.657 8.26205 29.8843Z" fill="#5382A1"/>
</g>
<defs>
<clipPath id="clip0_458_92">
<rect width="22.2" height="30" fill="white"/>
</clipPath>
</defs>
</svg>
