<svg width="30" height="30" viewBox="0 0 30 30" fill="none" xmlns="http://www.w3.org/2000/svg">
    <path
        d="M26.895 1.875H3.105C2.42569 1.875 1.875 2.42569 1.875 3.105V26.895C1.875 27.5743 2.42569 28.125 3.105 28.125H26.895C27.5743 28.125 28.125 27.5743 28.125 26.895V3.105C28.125 2.42569 27.5743 1.875 26.895 1.875Z"
        fill="#3178C6" />
    <path fill-rule="evenodd" clip-rule="evenodd"
        d="M17.1042 22.2741V25.1503C17.6268 25.4083 18.1838 25.5898 18.758 25.6894C19.4215 25.8119 20.0951 25.8721 20.7698 25.8694C21.4275 25.8725 22.0836 25.8062 22.7273 25.6716C23.3053 25.5548 23.8567 25.3323 24.3539 25.0153C24.8155 24.7174 25.1959 24.3096 25.4611 23.8284C25.936 22.8322 25.9987 21.6888 25.6355 20.6466C25.4822 20.2568 25.2538 19.901 24.9633 19.5994C24.6514 19.2786 24.2972 19.002 23.9105 18.7772C23.4652 18.5164 23.0025 18.2865 22.5258 18.0891C22.1508 17.9334 21.8133 17.7822 21.5133 17.6353C21.2468 17.5077 20.9918 17.3575 20.7511 17.1863C20.5625 17.0541 20.3988 16.8897 20.2673 16.7006C20.1538 16.529 20.0946 16.327 20.0977 16.1213C20.0952 15.9318 20.1479 15.7458 20.2495 15.5859C20.3599 15.4186 20.5071 15.2788 20.6798 15.1772C20.891 15.0528 21.1208 14.9633 21.3605 14.9119C21.6547 14.8465 21.9554 14.8151 22.2567 14.8181C22.5102 14.819 22.7632 14.8372 23.0142 14.8725C23.2852 14.9091 23.5534 14.9646 23.8167 15.0384C24.0846 15.1127 24.3465 15.2067 24.6005 15.3197C24.8469 15.4295 25.0826 15.562 25.3045 15.7153V13.0313C24.8424 12.8564 24.3632 12.7307 23.8748 12.6563C23.2851 12.5704 22.6896 12.53 22.0936 12.5353C21.4421 12.5318 20.7926 12.6058 20.1586 12.7556C19.5855 12.8866 19.0407 13.1193 18.5498 13.4428C18.0939 13.7465 17.7175 14.1551 17.452 14.6344C17.1708 15.1666 17.0316 15.7623 17.048 16.3641C17.0272 17.1598 17.2893 17.9371 17.7877 18.5578C18.3991 19.246 19.1701 19.7736 20.033 20.0944C20.4267 20.2569 20.7939 20.4159 21.1345 20.5716C21.4419 20.7083 21.7373 20.8704 22.0177 21.0563C22.2438 21.2034 22.4424 21.389 22.6045 21.6047C22.747 21.8003 22.8227 22.0367 22.8202 22.2788C22.8214 22.4601 22.7749 22.6386 22.6852 22.7963C22.5855 22.9656 22.4453 23.1077 22.2773 23.2097C22.0671 23.3379 21.8371 23.4303 21.5967 23.4834C21.2835 23.5535 20.9632 23.5865 20.6423 23.5819C20.0126 23.5807 19.3879 23.4697 18.7964 23.2538C18.1784 23.0307 17.6053 22.699 17.1042 22.2741ZM12.2723 15.1134H16.0223V12.7444H5.56641V15.1134H9.29953V25.6641H12.2723V15.1134Z"
        fill="white" />
</svg>