<svg width="14" height="15" viewBox="0 0 14 15" fill="none" xmlns="http://www.w3.org/2000/svg">
<path d="M5.17707 12.5215L10.0916 7.62148C10.15 7.56315 10.1914 7.49995 10.2159 7.4319C10.2404 7.36384 10.2525 7.29093 10.2521 7.21315C10.2521 7.13537 10.24 7.06245 10.2159 6.9944C10.1918 6.92634 10.1504 6.86315 10.0916 6.80482L5.17707 1.89023C5.04096 1.75412 4.87082 1.68607 4.66665 1.68607C4.46248 1.68607 4.28748 1.75898 4.14165 1.90482C3.99582 2.05065 3.9229 2.22079 3.9229 2.41523C3.9229 2.60968 3.99582 2.77982 4.14165 2.92565L8.42915 7.21315L4.14165 11.5006C4.00554 11.6368 3.93748 11.8046 3.93748 12.0041C3.93748 12.2036 4.0104 12.376 4.15623 12.5215C4.30207 12.6673 4.47221 12.7402 4.66665 12.7402C4.86109 12.7402 5.03123 12.6673 5.17707 12.5215Z" fill="#919191"/>
</svg>
