<svg width="20" height="21" viewBox="0 0 20 21" fill="none" xmlns="http://www.w3.org/2000/svg">
<g clip-path="url(#clip0_345_47)">
<path fill-rule="evenodd" clip-rule="evenodd" d="M18.125 2.60657H9.63745L8.57495 1.54407L8.13745 1.35657H1.88745L1.26245 1.98157V15.7316L1.88745 16.3566H8.74995V15.1066H2.48745V7.60657H8.09995L8.53745 7.41907L9.61245 6.34407H17.5V8.21907L17.4987 8.85657H18.7625V3.23157L18.125 2.60657ZM17.4874 5.10657H9.36245L8.92495 5.29407L7.84995 6.36907H2.49995V2.61907H7.86245L8.92495 3.68157L9.37495 3.86907H17.5L17.4874 5.10657ZM16.25 20.1066H15V16.3566H11.25V15.1066H15V11.3566H16.25V15.1066H20V16.3566H16.25V20.1066Z" fill="white"/>
</g>
<defs>
<clipPath id="clip0_345_47">
<rect width="20" height="20" fill="white" transform="translate(0 0.106567)"/>
</clipPath>
</defs>
</svg>
