<svg width="29" height="29" viewBox="0 0 29 29" fill="none" xmlns="http://www.w3.org/2000/svg">
<g clip-path="url(#clip0_345_49)">
<path d="M20.402 19.5667C21.7053 18.064 22.3583 16.1052 22.2174 14.121C22.0764 12.1369 21.153 10.2901 19.6503 8.98677C18.1457 7.6818 16.1908 7.02319 14.2017 7.12908L14.327 8.8924C15.0873 8.81673 15.8551 8.89779 16.5829 9.13058C17.3107 9.36337 17.983 9.74294 18.5583 10.2458C22.4866 13.653 20.3338 20.1032 15.1496 20.4715C9.96548 20.8399 6.92781 14.7525 10.3295 10.8305L12.2181 12.4685L11.884 7.76634L11.821 7.71174L7.18179 8.10043L9.0704 9.73847C7.76709 11.2411 7.1141 13.2 7.25507 15.1841C7.39604 17.1682 8.31943 19.0151 9.8221 20.3184C11.3248 21.6217 13.2836 22.2747 15.2677 22.1337C17.2519 21.9928 19.0987 21.0694 20.402 19.5667Z" fill="white"/>
</g>
<defs>
<clipPath id="clip0_345_49">
<rect width="20" height="20" fill="white" transform="translate(15.1089 28.2131) rotate(-139.064)"/>
</clipPath>
</defs>
</svg>
