<svg width="20" height="20" viewBox="0 0 20 20" fill="none" xmlns="http://www.w3.org/2000/svg">
<g clip-path="url(#clip0_339_74)">
<path d="M17.0666 2.92663C16.1389 1.99683 15.0365 1.25948 13.823 0.756949C12.6094 0.254415 11.3085 -0.00340429 9.99498 -0.0017006C4.47164 -0.0017006 -0.00585938 4.4758 -0.00585938 9.99913C-0.00585938 12.7608 1.11414 15.2616 2.92414 17.0716C3.85192 18.0014 4.95425 18.7388 6.16782 19.2413C7.3814 19.7439 8.6823 20.0017 9.99581 20C15.5191 20 19.9966 15.5225 19.9966 9.99913C19.9966 7.23747 18.8766 4.73663 17.0666 2.92663ZM15.7816 15.7825C15.0227 16.5434 14.1208 17.1468 13.1279 17.5581C12.135 17.9694 11.0705 18.1805 9.99581 18.1791C5.47664 18.1791 1.81331 14.5158 1.81331 9.99663C1.81196 8.9219 2.023 7.85749 2.4343 6.86456C2.8456 5.87164 3.44905 4.96978 4.20997 4.2108C4.96877 3.44986 5.87048 2.84639 6.86327 2.43509C7.85606 2.02379 8.92036 1.81276 9.99498 1.81413C14.5133 1.81413 18.1766 5.47747 18.1766 9.9958C18.1781 11.0704 17.9671 12.1347 17.5557 13.1275C17.1444 14.1203 16.541 15.022 15.78 15.7808L15.7816 15.7825Z" fill="white"/>
<path d="M11.2808 10L14.4933 6.78753C14.6518 6.61481 14.7374 6.38755 14.7323 6.1532C14.7272 5.91885 14.6318 5.69552 14.466 5.52982C14.3002 5.36412 14.0768 5.26887 13.8425 5.26394C13.6081 5.25901 13.3809 5.34479 13.2083 5.50337L13.2091 5.50253L9.99663 8.71503L6.78413 5.50253C6.6114 5.34407 6.38415 5.25844 6.1498 5.26352C5.91545 5.2686 5.69211 5.364 5.52642 5.5298C5.36072 5.69561 5.26547 5.919 5.26054 6.15335C5.25561 6.38771 5.34139 6.61491 5.49996 6.78753L5.49913 6.7867L8.71163 9.9992L5.49913 13.2117C5.40874 13.2946 5.33607 13.395 5.28549 13.5067C5.23491 13.6185 5.20746 13.7393 5.2048 13.8619C5.20214 13.9846 5.22433 14.1065 5.27002 14.2203C5.31571 14.3341 5.38396 14.4375 5.47067 14.5243C5.55738 14.6111 5.66074 14.6794 5.77455 14.7252C5.88835 14.7709 6.01024 14.7932 6.13287 14.7906C6.25551 14.788 6.37635 14.7607 6.48813 14.7101C6.59991 14.6596 6.70032 14.587 6.7833 14.4967L6.78413 14.4959L9.99663 11.2834L13.2091 14.4959C13.2921 14.5863 13.3924 14.6589 13.5042 14.7095C13.6159 14.7601 13.7367 14.7875 13.8594 14.7902C13.982 14.7929 14.1039 14.7707 14.2177 14.725C14.3316 14.6793 14.435 14.611 14.5217 14.5243C14.6085 14.4376 14.6768 14.3343 14.7226 14.2204C14.7684 14.1066 14.7906 13.9848 14.788 13.8621C14.7855 13.7395 14.7581 13.6186 14.7076 13.5069C14.6571 13.3951 14.5845 13.2947 14.4941 13.2117L14.4933 13.2109L11.2808 10Z" fill="white"/>
</g>
<defs>
<clipPath id="clip0_339_74">
<rect width="20" height="20" fill="white"/>
</clipPath>
</defs>
</svg>
