<svg width="18" height="18" viewBox="0 0 18 18" fill="none" xmlns="http://www.w3.org/2000/svg">
<path d="M11.52 1.61287L17.551 12.774C18.4177 14.377 17.992 16.486 16.5996 17.484C16.1324 17.8202 15.5876 17.9994 15.0309 18H2.96821C1.3293 18 0 16.47 0 14.581C0 13.942 0.1557 13.317 0.448201 12.774L6.48002 1.61287C7.34582 0.00985845 9.17643 -0.481145 10.5687 0.516862C10.9539 0.792865 11.2797 1.16787 11.52 1.61287ZM9.52203 2.45188C9.41185 2.37313 9.28844 2.32002 9.15927 2.29575C9.0301 2.27148 8.89785 2.27656 8.77049 2.31068C8.64313 2.34479 8.52332 2.40724 8.4183 2.49424C8.31327 2.58124 8.22521 2.691 8.15942 2.81688L2.12851 13.98C2.03054 14.1619 1.9789 14.37 1.97911 14.582C1.97911 15.212 2.42191 15.722 2.96911 15.722H15.03C15.2154 15.722 15.3963 15.662 15.5529 15.55C15.7777 15.3841 15.9361 15.1283 15.9953 14.8358C16.0545 14.5433 16.0098 14.2368 15.8706 13.98L9.83973 2.81688C9.76063 2.6699 9.65225 2.54503 9.52293 2.45188H9.52203ZM9.00003 14C8.76133 14 8.53241 13.8946 8.36363 13.7071C8.19485 13.5195 8.10002 13.2652 8.10002 13C8.10002 12.7347 8.19485 12.4804 8.36363 12.2928C8.53241 12.1053 8.76133 12 9.00003 12C9.23872 12 9.46764 12.1053 9.63642 12.2928C9.80521 12.4804 9.90003 12.7347 9.90003 13C9.90003 13.2652 9.80521 13.5195 9.63642 13.7071C9.46764 13.8946 9.23872 14 9.00003 14ZM9.00003 4.9999C9.23872 4.9999 9.46764 5.10526 9.63642 5.29279C9.80521 5.48033 9.90003 5.73469 9.90003 5.99991V9.99994C9.90003 10.2652 9.80521 10.5195 9.63642 10.707C9.46764 10.8946 9.23872 10.9999 9.00003 10.9999C8.76133 10.9999 8.53241 10.8946 8.36363 10.707C8.19485 10.5195 8.10002 10.2652 8.10002 9.99994V5.99991C8.10002 5.73469 8.19485 5.48033 8.36363 5.29279C8.53241 5.10526 8.76133 4.9999 9.00003 4.9999Z" fill="white"/>
</svg>
