<svg width="20" height="20" viewBox="0 0 20 20" fill="none" xmlns="http://www.w3.org/2000/svg">
<path d="M9.35547 12.9688C10.013 13.2292 10.612 13.5742 11.1523 14.0039C11.6927 14.4336 12.1549 14.9316 12.5391 15.498C12.9232 16.0645 13.2194 16.6732 13.4277 17.3242C13.6361 17.9753 13.7435 18.6589 13.75 19.375V20H12.5V19.375C12.5 18.6003 12.3535 17.8711 12.0605 17.1875C11.7676 16.5039 11.3639 15.9082 10.8496 15.4004C10.3353 14.8926 9.73958 14.4922 9.0625 14.1992C8.38542 13.9062 7.65625 13.7565 6.875 13.75C6.10026 13.75 5.37109 13.8965 4.6875 14.1895C4.00391 14.4824 3.4082 14.8861 2.90039 15.4004C2.39258 15.9147 1.99219 16.5104 1.69922 17.1875C1.40625 17.8646 1.25651 18.5938 1.25 19.375V20H0V19.375C0 18.6654 0.104167 17.9818 0.3125 17.3242C0.520833 16.6667 0.820312 16.0579 1.21094 15.498C1.60156 14.9382 2.0638 14.4434 2.59766 14.0137C3.13151 13.584 3.73047 13.2357 4.39453 12.9688C4.10156 12.7669 3.83789 12.5326 3.60352 12.2656C3.36914 11.9987 3.17057 11.7122 3.00781 11.4062C2.84505 11.1003 2.72135 10.7747 2.63672 10.4297C2.55208 10.0846 2.50651 9.73307 2.5 9.375C2.5 8.76953 2.61393 8.20312 2.8418 7.67578C3.06966 7.14844 3.38216 6.6862 3.7793 6.28906C4.17643 5.89193 4.63867 5.57943 5.16602 5.35156C5.69336 5.1237 6.26302 5.00651 6.875 5C7.48047 5 8.04688 5.11393 8.57422 5.3418C9.10156 5.56966 9.5638 5.88216 9.96094 6.2793C10.3581 6.67643 10.6706 7.13867 10.8984 7.66602C11.1263 8.19336 11.2435 8.76302 11.25 9.375C11.25 9.73307 11.2077 10.0814 11.123 10.4199C11.0384 10.7585 10.9115 11.084 10.7422 11.3965C10.5729 11.709 10.3743 11.9987 10.1465 12.2656C9.91862 12.5326 9.65495 12.7669 9.35547 12.9688ZM6.875 12.5C7.30469 12.5 7.70833 12.4186 8.08594 12.2559C8.46354 12.0931 8.79232 11.8717 9.07227 11.5918C9.35221 11.3118 9.57682 10.9798 9.74609 10.5957C9.91536 10.2116 10 9.80469 10 9.375C10 8.94531 9.91862 8.54167 9.75586 8.16406C9.5931 7.78646 9.36849 7.45768 9.08203 7.17773C8.79557 6.89779 8.46354 6.67318 8.08594 6.50391C7.70833 6.33464 7.30469 6.25 6.875 6.25C6.44531 6.25 6.04167 6.33138 5.66406 6.49414C5.28646 6.6569 4.95443 6.88151 4.66797 7.16797C4.38151 7.45443 4.1569 7.78646 3.99414 8.16406C3.83138 8.54167 3.75 8.94531 3.75 9.375C3.75 9.80469 3.83138 10.2083 3.99414 10.5859C4.1569 10.9635 4.37826 11.2956 4.6582 11.582C4.93815 11.8685 5.27018 12.0931 5.6543 12.2559C6.03841 12.4186 6.44531 12.5 6.875 12.5ZM20 0V10H17.5L13.75 13.75V10H12.5V8.75H15V10.7324L16.9824 8.75H18.75V1.25H6.25V3.49609C6.04167 3.52214 5.83333 3.55469 5.625 3.59375C5.41667 3.63281 5.20833 3.69141 5 3.76953V0H20Z" fill="white"/>
</svg>
