<svg width="16" height="18" viewBox="0 0 16 18" fill="none" xmlns="http://www.w3.org/2000/svg">
<path d="M3.83375 1.51375C5.06699 0.68982 6.51684 0.250037 8 0.25C9.98841 0.252316 11.8947 1.04324 13.3007 2.44926C14.7068 3.85528 15.4977 5.76159 15.5 7.75C15.4999 9.29996 15.0196 10.8118 14.1251 12.0776C13.2306 13.3435 11.9659 14.3011 10.505 14.8187V14.7638C10.525 14.7463 10.5437 14.7262 10.5625 14.7075C10.9095 14.3608 11.1047 13.8905 11.105 13.4V13.2288C11.8581 12.8014 12.515 12.2234 13.0349 11.5309C13.5547 10.8384 13.9262 10.0462 14.1263 9.20372C14.3264 8.36125 14.3508 7.48658 14.1978 6.63429C14.0449 5.78199 13.718 4.97035 13.2375 4.25C12.7097 3.45971 12.01 2.79906 11.1908 2.3175C10.3715 1.83594 9.45394 1.54597 8.50673 1.46928C7.55953 1.39259 6.60725 1.53118 5.72119 1.87466C4.83513 2.21815 4.03826 2.75764 3.39025 3.45273C2.74223 4.14783 2.25986 4.98051 1.97925 5.88844C1.69864 6.79637 1.62706 7.75602 1.76988 8.69553C1.9127 9.63505 2.26621 10.5301 2.80394 11.3136C3.34168 12.0971 4.0497 12.7489 4.875 13.22V13.4C4.87518 13.6563 4.92861 13.9097 5.03189 14.1443C5.13518 14.3788 5.28607 14.5893 5.475 14.7625V14.8125C4.16581 14.3452 3.01228 13.5232 2.14322 12.4383C1.27416 11.3533 0.723775 10.0482 0.553526 8.66855C0.383278 7.28893 0.599865 5.88914 1.17911 4.62548C1.75835 3.36183 2.67743 2.2853 3.83375 1.51375Z" fill="white"/>
<path d="M9.67875 13.825C9.62289 13.8807 9.5566 13.9248 9.48367 13.9548C9.41075 13.9848 9.33262 14.0002 9.25375 14V17.15C9.25375 17.3091 9.19054 17.4617 9.07801 17.5743C8.96549 17.6868 8.81288 17.75 8.65375 17.75H7.325C7.33875 17.75 7.32 17.745 7.2825 17.735C7.18875 17.71 6.98125 17.655 6.90125 17.5738C6.84535 17.518 6.80101 17.4517 6.77077 17.3788C6.74052 17.3059 6.72497 17.2277 6.725 17.1488V14C6.56587 14 6.41326 13.9368 6.30074 13.8243C6.18821 13.7117 6.125 13.5591 6.125 13.4V10.875C6.125 10.5435 6.2567 10.2255 6.49112 9.99112C6.72554 9.7567 7.04348 9.625 7.375 9.625H8.605C8.93652 9.625 9.25446 9.7567 9.48888 9.99112C9.7233 10.2255 9.855 10.5435 9.855 10.875V13.4C9.85474 13.5566 9.79329 13.7069 9.68375 13.8187L9.67875 13.825Z" fill="white"/>
<path d="M11.3 7.75001C11.3 8.40626 11.1038 9.04251 10.7438 9.58126C10.9725 9.95876 11.105 10.4013 11.105 10.875V11.0075C11.5395 10.5938 11.8868 10.0972 12.1264 9.54711C12.366 8.99703 12.493 8.40454 12.5 7.80458C12.507 7.20462 12.3938 6.60933 12.1671 6.05381C11.9404 5.49829 11.6048 4.99377 11.18 4.57001C10.7629 4.1367 10.2631 3.79143 9.71016 3.55458C9.15727 3.31774 8.56251 3.19415 7.96103 3.1911C7.35956 3.18805 6.76357 3.30561 6.20831 3.53684C5.65305 3.76807 5.14978 4.10826 4.72824 4.53732C4.3067 4.96638 3.97546 5.47559 3.75409 6.03485C3.53272 6.59412 3.42571 7.19209 3.4394 7.79341C3.45308 8.39474 3.58718 8.98722 3.83376 9.53584C4.08034 10.0845 4.4344 10.5781 4.87502 10.9875V10.875C4.87502 10.395 5.01002 9.94626 5.24502 9.56626C4.96182 9.13676 4.78296 8.647 4.72272 8.13608C4.66248 7.62515 4.72253 7.10722 4.89808 6.62364C5.07363 6.14005 5.35981 5.70421 5.73377 5.35091C6.10773 4.9976 6.55912 4.73663 7.05189 4.58882C7.54466 4.441 8.06517 4.41045 8.57185 4.4996C9.07853 4.58875 9.55735 4.79512 9.97007 5.10225C10.3828 5.40938 10.718 5.80875 10.9489 6.26847C11.1798 6.7282 11.3001 7.23555 11.3 7.75001Z" fill="white"/>
<path d="M9.25 7.75C9.25 8.08152 9.1183 8.39946 8.88388 8.63388C8.64946 8.8683 8.33152 9 8 9C7.66848 9 7.35054 8.8683 7.11612 8.63388C6.8817 8.39946 6.75 8.08152 6.75 7.75C6.75 7.41848 6.8817 7.10054 7.11612 6.86612C7.35054 6.6317 7.66848 6.5 8 6.5C8.33152 6.5 8.64946 6.6317 8.88388 6.86612C9.1183 7.10054 9.25 7.41848 9.25 7.75Z" fill="white"/>
</svg>
