<svg width="1235" height="749" viewBox="0 0 1235 749" fill="none" xmlns="http://www.w3.org/2000/svg">
<path opacity="0.04" d="M1.02404 55.1572L31.957 1.51728L50.7466 12.3528C55.5284 15.1104 59.2768 17.6183 61.9917 19.8766C64.7366 22.0828 66.6219 24.2783 67.6478 26.4629C68.7036 28.5955 68.9958 30.9111 68.5246 33.4098C68.1352 35.8865 67.1603 38.7181 65.5997 41.9047C64.0392 45.0912 62.015 48.8415 59.5272 53.1555C57.0394 57.4696 54.8073 61.1 52.8309 64.0467C50.8545 66.9934 48.8771 69.2815 46.8985 70.911C45.0018 72.5184 42.8512 73.4253 40.4465 73.6317C38.0719 73.786 35.2274 73.2538 31.913 72.0351C28.6286 70.7644 24.5954 68.7503 19.8136 65.9927L1.02404 55.1572ZM20.6147 52.533L25.5265 55.3656C27.6575 56.5945 29.4287 57.5466 30.84 58.222C32.2814 58.8454 33.5267 59.148 34.5761 59.1298C35.7075 59.0896 36.7588 58.5877 37.7301 57.6241C38.7833 56.6384 39.9204 55.147 41.1414 53.1499C42.4443 51.1308 44.0249 48.51 45.8833 45.2874C47.7417 42.0649 49.2034 39.4101 50.2684 37.323C51.4154 35.214 52.1367 33.4828 52.4323 32.1295C52.7578 30.7242 52.6806 29.5369 52.2007 28.5675C51.7208 27.5982 50.8351 26.6718 49.5437 25.7886C48.2522 24.9053 46.541 23.8492 44.41 22.6203L39.4982 19.7877L20.6147 52.533ZM57.372 87.6518L88.305 34.0119L125.884 55.683L119.859 66.1303L95.8461 52.2824L89.5067 63.2754L109.856 75.0102L103.921 85.3016L83.5719 73.5668L76.9626 85.0277L100.976 98.8756L94.9511 109.323L57.372 87.6518ZM127.449 128.895C125.37 127.696 123.139 126.34 120.756 124.828C118.425 123.345 116.15 121.825 113.931 120.268C111.764 118.742 109.831 117.35 108.132 116.093L113.932 106.035C115.765 107.3 117.598 108.565 119.431 109.83C121.317 111.125 123.128 112.308 124.865 113.379C126.602 114.45 128.069 115.33 129.264 116.02C131.759 117.459 133.701 118.475 135.09 119.068C136.51 119.61 137.636 119.878 138.47 119.874C139.095 119.75 139.606 119.525 140.002 119.199C140.449 118.903 140.864 118.484 141.246 117.943C141.627 117.401 142.028 116.766 142.448 116.038C143.077 114.947 143.494 114.044 143.697 113.331C143.983 112.595 144.023 111.925 143.817 111.322C143.663 110.748 143.241 110.159 142.551 109.553C141.892 108.896 140.983 108.129 139.826 107.254L129.642 99.511C127.661 98.0222 126.219 96.4983 125.317 94.9393C124.446 93.3284 124.009 91.6224 124.009 89.8214C124.009 88.0204 124.377 86.1204 125.114 84.1214C125.882 82.0704 126.925 79.9014 128.244 77.6144C130.282 74.08 132.42 71.573 134.659 70.0934C136.927 68.5618 139.286 67.7748 141.734 67.7324C144.265 67.668 146.856 68.1582 149.509 69.2032C152.214 70.2781 155.022 71.6548 157.932 73.3333C160.011 74.5323 162.123 75.8541 164.268 77.2989C166.443 78.6918 168.444 80.0876 170.269 81.4865C172.124 82.8334 173.612 84.0375 174.731 85.0987L169.066 94.9223C167.887 93.965 166.443 92.9249 164.736 91.8018C163.111 90.6567 161.377 89.5187 159.536 88.3877C157.725 87.2046 155.988 86.1336 154.324 85.1744C152.297 84.0054 150.641 83.1542 149.356 82.6207C148.1 82.0353 147.03 81.7297 146.144 81.7038C145.177 81.7 144.394 81.976 143.797 82.5318C143.251 83.1176 142.679 83.9302 142.079 84.9698C141.33 86.2692 140.849 87.3427 140.638 88.1902C140.456 88.9858 140.654 89.7234 141.232 90.4029C141.809 91.0824 142.792 91.9608 144.18 93.0379L154.141 100.445C155.507 101.44 156.682 102.464 157.668 103.518C158.706 104.601 159.493 105.817 160.031 107.166C160.621 108.545 160.834 110.157 160.671 112.002C160.645 112.888 160.451 113.884 160.09 114.992C159.758 116.047 159.311 117.244 158.747 118.581C158.184 119.918 157.452 121.367 156.553 122.926C154.785 125.993 152.974 128.412 151.121 130.183C149.299 131.902 147.456 133.056 145.593 133.644C143.76 134.18 141.843 134.321 139.842 134.068C137.871 133.762 135.853 133.118 133.788 132.135C131.745 131.234 129.632 130.154 127.449 128.895ZM159.713 146.67L190.646 93.0298L228.225 114.701L222.201 125.148L198.187 111.3L191.848 122.293L212.197 134.028L206.262 144.319L185.913 132.585L179.304 144.046L203.317 157.893L197.292 168.341L159.713 146.67ZM210.503 175.959L241.436 122.319L255.392 130.367L256.265 169.208L256.655 169.432L273.246 140.663L286.266 148.172L255.333 201.812L242.625 194.483L242.032 152.273L241.642 152.048L223.523 183.468L210.503 175.959ZM281.201 216.729L296.074 153.828L309.951 161.831L298.362 207.509L298.908 207.824L332.561 174.869L346.127 182.692L299.133 227.07L281.201 216.729ZM345.812 254.82C341.29 252.212 337.723 249.809 335.112 247.611C332.583 245.39 330.858 243.218 329.936 241.093C329.044 238.917 328.808 236.564 329.227 234.035C329.728 231.485 330.774 228.59 332.365 225.352C334.007 222.143 336.072 218.382 338.56 214.068C341.048 209.754 343.269 206.082 345.223 203.054C347.23 200.055 349.196 197.726 351.123 196.066C353.131 194.385 355.286 193.411 357.587 193.145C359.917 192.827 362.662 193.232 365.82 194.361C369.061 195.467 372.942 197.325 377.464 199.932C381.934 202.51 385.433 204.909 387.962 207.13C390.573 209.328 392.351 211.53 393.295 213.737C394.268 215.891 394.505 218.244 394.004 220.795C393.532 223.294 392.501 226.162 390.911 229.401C389.32 232.639 387.281 236.415 384.793 240.729C382.305 245.043 380.058 248.7 378.052 251.699C376.046 254.697 374.064 257.052 372.108 258.764C370.181 260.423 368.026 261.397 365.644 261.685C363.291 261.922 360.495 261.486 357.254 260.38C354.096 259.251 350.282 257.398 345.812 254.82ZM351.836 244.372C353.707 245.452 355.245 246.269 356.448 246.824C357.734 247.358 358.864 247.559 359.839 247.429C360.845 247.247 361.848 246.648 362.849 245.633C363.851 244.617 364.992 243.059 366.273 240.958C367.606 238.887 369.231 236.188 371.149 232.861C373.068 229.535 374.589 226.776 375.714 224.585C376.891 222.424 377.669 220.656 378.046 219.281C378.424 217.905 378.424 216.763 378.048 215.853C377.703 214.892 376.962 214.015 375.826 213.221C374.773 212.406 373.31 211.459 371.439 210.38C369.62 209.331 368.068 208.539 366.782 208.006C365.527 207.42 364.396 207.219 363.391 207.401C362.416 207.531 361.427 208.104 360.426 209.119C359.425 210.135 358.258 211.678 356.925 213.75C355.644 215.851 354.044 218.564 352.126 221.891C350.208 225.217 348.66 227.961 347.483 230.122C346.358 232.313 345.607 234.096 345.229 235.472C344.852 236.847 344.836 238.015 345.182 238.977C345.558 239.886 346.299 240.763 347.404 241.609C348.54 242.402 350.017 243.323 351.836 244.372ZM382.669 275.243L413.602 221.603L427.167 229.427L402.529 272.151L423.424 284.201L417.129 295.116L382.669 275.243ZM436.084 306.047L450.956 243.145L464.834 251.148L453.245 296.827L453.79 297.141L487.444 264.186L501.009 272.01L454.016 316.388L436.084 306.047ZM479.985 331.363L510.918 277.723L548.497 299.395L542.472 309.842L518.459 295.994L512.119 306.987L532.468 318.722L526.533 329.013L506.185 317.278L499.575 328.739L523.589 342.587L517.564 353.034L479.985 331.363ZM530.775 360.653L561.708 307.013L580.497 317.848C585.279 320.606 589.027 323.114 591.742 325.372C594.487 327.578 596.373 329.774 597.398 331.958C598.454 334.091 598.746 336.407 598.275 338.905C597.886 341.382 596.911 344.214 595.35 347.4C593.79 350.587 591.766 354.337 589.278 358.651C586.79 362.965 584.558 366.596 582.581 369.542C580.605 372.489 578.628 374.777 576.649 376.407C574.752 378.014 572.602 378.921 570.197 379.127C567.822 379.282 564.978 378.749 561.664 377.531C558.379 376.26 554.346 374.246 549.564 371.488L530.775 360.653ZM550.365 358.029L555.277 360.861C557.408 362.09 559.179 363.042 560.591 363.718C562.032 364.341 563.277 364.644 564.327 364.625C565.458 364.585 566.509 364.083 567.481 363.12C568.534 362.134 569.671 360.643 570.892 358.646C572.195 356.626 573.776 354.006 575.634 350.783C577.492 347.56 578.954 344.906 580.019 342.819C581.166 340.71 581.887 338.978 582.183 337.625C582.508 336.22 582.431 335.033 581.951 334.063C581.471 333.094 580.586 332.167 579.294 331.284C578.003 330.401 576.292 329.345 574.161 328.116L569.249 325.283L550.365 358.029ZM608.593 406.36C604.071 403.752 600.505 401.349 597.894 399.151C595.365 396.931 593.639 394.758 592.717 392.634C591.825 390.457 591.589 388.104 592.008 385.576C592.51 383.025 593.556 380.13 595.146 376.892C596.789 373.683 598.854 369.922 601.342 365.608C603.829 361.294 606.051 357.623 608.005 354.594C610.011 351.595 611.978 349.266 613.904 347.607C615.913 345.925 618.068 344.952 620.368 344.685C622.699 344.367 625.443 344.772 628.602 345.901C631.842 347.008 635.723 348.865 640.245 351.473C644.715 354.051 648.215 356.45 650.744 358.67C653.355 360.868 655.132 363.071 656.076 365.277C657.05 367.432 657.286 369.785 656.785 372.335C656.314 374.834 655.283 377.702 653.692 380.941C652.102 384.179 650.063 387.956 647.575 392.27C645.087 396.584 642.84 400.24 640.834 403.239C638.827 406.238 636.846 408.593 634.889 410.304C632.963 411.964 630.808 412.937 628.425 413.226C626.073 413.462 623.276 413.027 620.036 411.92C616.877 410.791 613.063 408.938 608.593 406.36ZM614.618 395.913C616.489 396.992 618.026 397.809 619.23 398.365C620.515 398.898 621.645 399.1 622.621 398.97C623.626 398.788 624.63 398.189 625.631 397.173C626.632 396.157 627.773 394.599 629.054 392.498C630.387 390.427 632.013 387.728 633.931 384.402C635.849 381.075 637.371 378.316 638.496 376.125C639.673 373.964 640.45 372.196 640.828 370.821C641.205 369.446 641.206 368.303 640.83 367.394C640.484 366.432 639.743 365.555 638.608 364.762C637.554 363.946 636.092 362.999 634.221 361.92C632.401 360.871 630.849 360.08 629.564 359.546C628.308 358.961 627.178 358.759 626.173 358.941C625.197 359.071 624.209 359.644 623.208 360.66C622.206 361.675 621.039 363.219 619.706 365.29C618.425 367.391 616.826 370.105 614.908 373.431C612.989 376.758 611.442 379.502 610.265 381.663C609.14 383.854 608.388 385.637 608.011 387.012C607.633 388.387 607.618 389.556 607.964 390.517C608.339 391.426 609.08 392.304 610.186 393.149C611.321 393.943 612.799 394.864 614.618 395.913ZM645.45 426.784L676.383 373.144L702.969 388.475C706.452 390.484 709.033 392.492 710.715 394.501C712.478 396.487 713.471 398.549 713.693 400.686C713.998 402.8 713.702 405.054 712.807 407.447C711.994 409.818 710.793 412.381 709.205 415.135C708.036 417.162 706.696 419.126 705.185 421.025C703.704 422.872 701.949 424.354 699.921 425.469C697.974 426.563 695.706 426.952 693.118 426.637L689.266 452.052L675.155 443.914L679.956 418.112L682.308 421.962C681.69 421.952 681.106 421.823 680.557 421.575C680.059 421.357 679.446 421.039 678.718 420.619L669.986 415.583L659.016 434.607L645.45 426.784ZM675.786 405.526L683.583 410.022C685.35 411.041 686.798 411.772 687.928 412.216C689.139 412.637 690.155 412.738 690.974 412.518C691.794 412.298 692.551 411.765 693.247 410.92C693.942 410.074 694.709 408.924 695.549 407.468C696.418 405.961 697.044 404.694 697.428 403.669C697.864 402.673 697.956 401.792 697.706 401.024C697.538 400.235 696.968 399.421 695.997 398.584C695.077 397.777 693.682 396.833 691.811 395.754L684.014 391.258L675.786 405.526ZM724.569 472.41L755.502 418.77L791.522 439.542L785.497 449.989L763.043 437.041L755.715 449.749L775.284 461.034L769.259 471.481L749.69 460.196L738.135 480.233L724.569 472.41ZM793.469 512.974C789.467 510.666 786.275 508.514 783.894 506.517C781.543 504.469 779.902 502.449 778.972 500.459C778.043 498.468 777.727 496.312 778.027 493.991C778.356 491.619 779.2 488.954 780.559 485.997C782 483.019 783.844 479.58 786.092 475.682L803.087 446.211L816.653 454.034L797.994 486.39C796.556 488.885 795.439 490.942 794.643 492.561C793.93 494.158 793.582 495.482 793.601 496.531C793.671 497.61 794.177 498.595 795.118 499.484C796.142 500.351 797.615 501.34 799.538 502.449C801.462 503.558 803.029 504.323 804.24 504.744C805.482 505.114 806.561 505.044 807.478 504.534C808.448 504.054 809.419 503.09 810.392 501.643C811.447 500.174 812.694 498.192 814.133 495.697L832.792 463.341L846.358 471.164L829.363 500.635C827.114 504.533 825.036 507.837 823.128 510.546C821.301 513.233 819.444 515.313 817.555 516.786C815.748 518.238 813.751 519.06 811.562 519.252C809.373 519.444 806.803 519.036 803.853 518.027C800.932 516.966 797.471 515.282 793.469 512.974ZM829.804 533.096L860.737 479.456L874.303 487.28L849.664 530.004L870.559 542.054L864.264 552.969L829.804 533.096ZM875.112 559.225L906.045 505.585L919.611 513.408L894.972 556.133L915.867 568.182L909.572 579.097L875.112 559.225ZM928.674 567.256L934.474 557.199L955.758 569.473L949.958 579.53L928.674 567.256ZM972.3 616.102C970.221 614.903 967.99 613.547 965.607 612.035C963.276 610.552 961.001 609.032 958.782 607.475C956.615 605.949 954.682 604.557 952.983 603.3L958.782 593.242C960.616 594.507 962.449 595.772 964.282 597.037C966.167 598.332 967.979 599.515 969.716 600.586C971.453 601.657 972.919 602.538 974.115 603.227C976.61 604.666 978.552 605.682 979.941 606.275C981.36 606.817 982.487 607.085 983.32 607.081C983.946 606.957 984.457 606.732 984.852 606.406C985.3 606.11 985.715 605.691 986.097 605.15C986.478 604.608 986.879 603.973 987.298 603.246C987.928 602.154 988.345 601.251 988.548 600.538C988.834 599.802 988.874 599.132 988.668 598.529C988.514 597.955 988.092 597.366 987.402 596.76C986.742 596.103 985.834 595.336 984.676 594.461L974.493 586.718C972.511 585.229 971.07 583.705 970.168 582.146C969.296 580.535 968.86 578.829 968.86 577.028C968.86 575.227 969.228 573.327 969.965 571.328C970.732 569.277 971.775 567.108 973.094 564.821C975.133 561.287 977.271 558.78 979.509 557.3C981.778 555.769 984.136 554.982 986.585 554.939C989.116 554.875 991.707 555.365 994.36 556.41C997.065 557.485 999.872 558.862 1002.78 560.54C1004.86 561.739 1006.97 563.061 1009.12 564.506C1011.29 565.899 1013.29 567.295 1015.12 568.694C1016.97 570.04 1018.46 571.245 1019.58 572.306L1013.92 582.129C1012.74 581.172 1011.29 580.132 1009.59 579.009C1007.96 577.864 1006.23 576.726 1004.39 575.595C1002.58 574.412 1000.84 573.341 999.175 572.381C997.148 571.212 995.492 570.361 994.207 569.828C992.951 569.242 991.881 568.937 990.995 568.911C990.028 568.907 989.245 569.183 988.648 569.739C988.102 570.325 987.529 571.137 986.93 572.177C986.181 573.476 985.7 574.55 985.488 575.397C985.307 576.193 985.505 576.93 986.082 577.61C986.66 578.289 987.643 579.168 989.03 580.245L998.992 587.652C1000.36 588.647 1001.53 589.671 1002.52 590.725C1003.56 591.808 1004.34 593.024 1004.88 594.373C1005.47 595.752 1005.69 597.364 1005.52 599.209C1005.5 600.095 1005.3 601.091 1004.94 602.199C1004.61 603.254 1004.16 604.451 1003.6 605.788C1003.03 607.125 1002.3 608.574 1001.4 610.133C999.635 613.2 997.825 615.619 995.972 617.39C994.15 619.109 992.307 620.263 990.444 620.851C988.611 621.387 986.694 621.528 984.693 621.275C982.722 620.97 980.704 620.325 978.639 619.342C976.596 618.441 974.483 617.361 972.3 616.102ZM1015.09 639.947L1039.73 597.222L1025.07 588.769L1031.36 577.854L1074.32 602.627L1068.03 613.542L1053.29 605.045L1028.66 647.77L1015.09 639.947ZM1045.42 657.436L1093.35 613.597L1111.82 624.253L1097.97 687.739L1084.24 679.826L1087.12 667.458L1068.02 656.442L1058.83 665.169L1045.42 657.436ZM1076.79 647.892L1090.04 655.536L1095.88 630.643L1095.33 630.328L1076.79 647.892ZM1128.83 706.367C1124.77 704.029 1121.54 701.821 1119.14 699.742C1116.77 697.612 1115.08 695.428 1114.09 693.192C1113.14 690.985 1112.83 688.588 1113.14 685.999C1113.51 683.44 1114.44 680.512 1115.92 677.213C1117.41 673.915 1119.4 670.109 1121.89 665.795C1124.37 661.48 1126.67 657.854 1128.78 654.915C1130.89 651.977 1132.96 649.707 1134.99 648.108C1137.08 646.538 1139.31 645.61 1141.69 645.321C1144.13 645.063 1146.85 645.453 1149.85 646.492C1152.88 647.479 1156.42 649.141 1160.48 651.479C1162.04 652.379 1163.62 653.36 1165.22 654.423C1166.82 655.486 1168.35 656.571 1169.79 657.678C1171.22 658.785 1172.4 659.81 1173.31 660.751L1167.69 670.496C1166.17 669.411 1164.76 668.427 1163.47 667.544C1162.26 666.639 1161.16 665.901 1160.18 665.332C1159.22 664.71 1158.4 664.205 1157.73 663.815C1155.34 662.436 1153.3 661.401 1151.62 660.71C1150.02 659.997 1148.6 659.697 1147.36 659.811C1146.12 659.925 1144.93 660.486 1143.79 661.494C1142.69 662.45 1141.46 663.922 1140.1 665.911C1138.83 667.878 1137.28 670.447 1135.45 673.618C1133.65 676.736 1132.21 679.365 1131.11 681.504C1130.07 683.673 1129.4 685.501 1129.09 686.988C1128.79 688.476 1128.9 689.786 1129.42 690.919C1129.98 692 1130.95 693.08 1132.33 694.157C1133.8 695.212 1135.73 696.429 1138.12 697.808C1139.74 698.737 1141.58 699.734 1143.67 700.799C1145.79 701.812 1147.64 702.634 1149.21 703.266L1143.46 713.245C1142.19 712.794 1140.71 712.181 1139.01 711.408C1137.28 710.687 1135.52 709.884 1133.75 708.998C1132.03 708.143 1130.38 707.266 1128.83 706.367ZM1155.64 720.999L1186.57 667.359L1200.14 675.182L1187.91 696.388L1191.89 698.681L1218.77 685.928L1233.43 694.38L1200.41 709.309L1202.73 748.155L1187.53 739.388L1185.95 708.973L1181.97 706.68L1169.21 728.822L1155.64 720.999Z" fill="white"/>
</svg>
